<?xml version="1.0" encoding="utf-8"?>
<svg viewBox="0 0 1600 1200" xmlns="http://www.w3.org/2000/svg">
  <style>.st1{display:inline}.st2{fill:#e8e8e8}.st3{fill:#161616}.st4{display:inline;fill:#fff;stroke:#161616;stroke-width:3;stroke-miterlimit:10}.st5{opacity:.4;fill:#666}.st5,.st6,.st7{display:inline}.st6{opacity:.5;fill:#666}.st7{fill:#161616;stroke:#161616;stroke-width:2;stroke-miterlimit:10}.st8{fill:#fff}.st9{display:inline;opacity:.41;fill:#666}.st10,.st11,.st16{display:inline;fill:#5222d0}.st11,.st16{fill:#ec615b}.st16{opacity:.48;fill:#666}.st18{fill:#ec615b}.st19{fill:#5222d0}.st22,.st23{fill:#fff;stroke:#161616;stroke-width:2;stroke-miterlimit:10}.st23{fill:#161616}.st24,.st25{opacity:.21;fill:#666}.st25{opacity:.14}.st26,.st27{opacity:.2;fill:#666}.st27{opacity:.13}.st28,.st29{fill:#161616;stroke:#161616;stroke-width:3;stroke-miterlimit:10}.st29{fill:#fff}.st30,.st32{opacity:.24;fill:#666}.st32{opacity:.16}.st35,.st36{opacity:.17;fill:#666}.st36{opacity:.18}</style>
  <g transform="matrix(1.159175, 0, 0, 1.103956, -236.367279, -112.603508)">
    <g id="background">
      <path d="M557 504c6 10 6 22 1 32-1 2 1 4 2 2 6-11 6-24 0-36-1-1-4 0-3 2z" class="st3"/>
      <path d="M561 504c3-1 7-3 11-3 6 2 6 6 7 11 0 7 0 13-5 19-1 1 1 3 3 2 5-7 6-18 4-27-3-11-14-8-22-4-1 1 0 3 2 2z" class="st3"/>
      <path d="M561 539c5 0 11-2 15-6 1-2-1-4-2-2-4 4-8 5-13 5-2-1-2 2 0 3zM560 372c1-2 5-9 9-3l1 5 2 6c5 5 9-3 14-1 7 4-2 11 4 15l4 1 3-2c3-2 5 2 5 5l1 1h4v-3h-4l2 2c0-3-1-7-3-8-3-2-5 0-7 1-2 0-3 2-4 0-1-1 0-4 1-5v-4c-1-3-3-5-6-6s-4 0-7 1-5 1-6-2l-1-3-1-5c-4-7-11-1-14 4 0 1 2 3 3 1zM579 363c3-2 5-3 8-1 2 2 1 2 2 5l2 3c1 2 3 2 5 1 2 0 4-1 5 1l1 4c0 3 0 6 4 8h3c1-1 1-1 1 1l1 2c0 3 1 4 3 6 1 1 4-1 2-2-3-3-1-7-3-9-3-3-7 1-8-4-1-4 1-9-4-10-4-1-7 3-9-2l-2-6c-3-4-10-2-13 1-1 1 1 3 2 2zM948 549c-3-1 1-6 2-7 3-1 5-1 7 1 4 5 1 11-5 11v3c5 0 9-3 10-7 1-5-2-9-6-11s-8 0-10 3-3 9 2 10c2 0 2-3 0-3zM928 543c-2-2 0-6 2-4 3 2-1 5-3 3-1-1-3 2-1 3 2 2 5 1 7-1s2-5-1-7c-2-2-5-2-7 0-2 3-2 6 0 8 2 1 4-1 3-2zM1275 414c1 19-9 37-24 47-2 1-1 3 1 2 17-10 27-29 26-49-1-2-4-2-3 0z" class="st3"/>
      <path d="M1277 416c9 7 5 20 0 28s-13 18-24 16c-1 0-2 3 0 3 12 2 22-9 27-19 6-9 8-23-2-30-2-1-3 1-1 2z" class="st3"/>
      <path d="M435 327c6 11 10 22 11 34 0 2 3 2 3 0-1-12-5-24-12-35-1-2-3 0-2 1zM447 324c5 10 8 20 9 30 0 2 3 2 3 0-1-11-4-21-10-31 0-2-3-1-2 1z" class="st2"/>
      <path d="M434 347c9-6 18-9 29-9 2 0 2-3 0-3-11 0-21 3-31 9-1 1 0 4 2 3zM434 359c11-7 22-11 35-13 2 0 1-3-1-3-13 2-25 7-36 13-1 1 0 4 2 3zM1021 408c-5 2-7 8-3 12 2 2 4 2 7 3 1 0 3 1 3 3l-2 3-3 4c0 2 0 4 2 5 2 2 5 1 7 2 5 2-4 13 4 15 2 0 3-3 1-3-3-1 1-7 1-9s0-3-2-4c-3-4-13 0-8-9 2-2 5-5 3-9l-3-2h-4c-6 0-6-6-2-8 2-1 1-4-1-3zM1043 425c-3 1-3 5-1 7l5 4c4 3 0 6-1 9-1 7 6 5 8 9 1 3 1 7 5 8 2 1 2-2 1-3-3-1-3-6-4-9l-2-1-2-1-1-1c-1-1-2-2 0-3 0-3 2-5 0-8l-3-2c-1-1-7-5-4-6 2-1 1-4-1-3zM1236 627c-7-5-6-16 2-20 6-3 14-1 17 5s1 15-5 18-14 0-18-6c-1-1-3 0-2 2 4 7 15 11 22 6 8-5 10-16 5-23-6-7-16-9-23-3-8 6-7 18 1 23 1 2 3-1 1-2zM546 656c1-4 3-5 5-3h1l2 1c2 0 3-1 4-3 2-4-1-7-3-11-1-1-4-3-4-5 1-5 4-3 6-3l4-3v-4l-1-2c0-3 1-4 4-4l3 3c1 2 3 0 2-1-2-4-10-9-12-2 0 4 3 9-2 10-3 0-5 0-6 4-1 2 0 5 2 7l2 3 3 3-4 4-4-2c-6 0-9 8-4 10 2 1 4-2 2-2zM570 651c-1-2-4-6-3-10l6-5c2-3 2-7 0-11l-1 3c5 0 10-3 12-9 1-2-2-2-3-1-1 5-5 7-9 7l-2 2c2 2 2 5 1 7l-4 3-2 4c-1 4 1 8 3 12 1 2 3 0 2-2zM876 135c5 6 8 13 10 21 0 2 3 1 3-1-2-9-6-16-11-23-1-1-3 1-2 3z" class="st2"/>
      <path d="M878 135c4-3 17-15 22-12 3 2 5 6 7 9l5 10c0 2 3 1 2 0-1-5-3-10-6-14-2-3-4-7-7-9-4-1-8 2-11 4l-14 10c-1 1 1 3 2 2z" class="st2"/>
      <path d="M889 158c8-7 16-12 26-17 2 0 0-3-2-2-9 4-18 10-26 17-2 1 1 3 2 2zM906 129c4-3 13-11 17-6 4 4 6 10 8 15 1 2 3 0 3-1l-7-13c-1-2-2-5-5-6s-6 1-8 2l-10 7c-1 2 1 4 2 2z" class="st2"/>
      <path d="M899 148c5 2 9 5 12 8h3c4-6 10-11 17-15 2 0 0-3-1-2-8 3-14 9-19 15h3c-4-4-8-7-13-9-2-1-4 2-2 3z" class="st2"/>
      <path d="m921 259-1-3 3-3 2-1 2-3 1-6-1-2s1-9 4-6c1 1 4-1 2-2-2-2-4-2-6 0-4 4-2 8-2 12 0 6-8 6-8 11-1 3 0 5 3 6 2 0 3-3 1-3zM932 251c2 1 6 0 6-3 1-3-1-5-1-8 0-4 3-7 6-8 2-1 1-4-1-3-3 1-6 3-7 7a12 12 0 0 0-1 7s2 7 0 5c-2-1-4 1-2 3zM674 581c-2-1-2-4-1-5 1-2 4-2 6-2l4 3c1 2-1 5-3 4-2 0-3 3-1 3 4 1 7-2 7-5 1-4-2-7-6-8-3-1-8 0-10 4-2 3-1 7 2 8 2 1 4-1 2-2zM516 227l1-6h2l3 1h3c3-1 4-3 4-6 0-2-1-5 1-7 1-2 4-2 6-2 7 2 6 11 3 15-1 2 2 3 3 2 3-5 4-13-1-18-4-3-11-2-14 2-2 3-1 5-2 8-1 6-8 1-11 2-7 2-5 10 1 12 2 0 3-3 1-3zM1166 665h7c1 0 3-1 2-2-1-2 0-3 1-5 1-3 2-3 5 0 1 1 3 0 3-1v-4c0-3 2-4 6-3 1 2 3 1 3-1-2-3-5-4-8-3-4 2-4 7-4 11l2-1c-1-3-5-4-8-2s-4 6-3 10l3-2c-4-2-7-1-10 1-2 1 0 3 1 2zM1089 251c-6 2-10 6-10 12-1 5 2 12 8 13 4 0 9-5 6-9-3-5-8-1-11 2-6 9 0 27 13 23 4-1 8-6 6-10-2-5-8 0-10 3-3 7-4 16 3 20 5 3 12 1 13-5 1-1-1-2-2-1-7 8-2 20 9 21 2 0 2-3 0-3-8 0-12-9-7-16l-3-1c-1 5-8 4-11 0-2-4-1-9 1-13 0-1 3-6 5-3 0 2-3 4-4 5-3 2-7 1-9-2-3-2-3-6-3-10l1-5 2-2-1 2c-2 0-3-5-4-7l1-3c1-4 4-7 7-8 2-1 1-3 0-3z" class="st18"/>
      <path d="M551 312c-1-2-1-5 1-6 2-3 4-2 7-2h5l2-4 1-3 1-2c0-2 2-3 5-3 0 2 2 2 3 0 0-2 1-4 4-6s7-1 8 3c0 2 3 1 3-1-1-4-5-7-9-6-5 1-8 5-9 10h3c0-3-3-5-6-4-4 0-5 5-6 9 0 2-1 4-4 4h-4l-5 1c-3 3-5 7-3 11 0 2 3 1 3-1z" class="st19"/>
      <ellipse cx="1110.3" cy="395.2" class="st19" rx="13" ry="13.9"/>
      <ellipse cx="407.1" cy="403.7" class="st19" rx="8.6" ry="8.5"/>
      <ellipse cx="534.4" cy="766.4" class="st19" rx="7.2" ry="7.8"/>
      <ellipse cx="1095.2" cy="412.1" class="st18" rx="15.1" ry="14.3"/>
      <ellipse cx="796.3" cy="110.6" class="st18" rx="7.7" ry="8.6"/>
      <ellipse cx="1218.9" cy="565.6" class="st18" rx="10.8" ry="12"/>
      <ellipse cx="376.9" cy="493.5" class="st18" rx="21.6" ry="22.1"/>
    </g>
    <g id="background_grey">
      <path d="M527 1082c-19-29-45-61-42-98l-1 1 8 2c1 0 3 0 2-2l-4-6c-4-4-4-8-4-13 0-8-1-16-5-23l-1 2 8-3 1-1c-6-19-3-40-2-59l6-61-2 1c13 9 21 24 26 38a484 484 0 0 1 34 217c0 2 3 2 3 0 5-74-7-150-34-219-6-15-14-29-27-38-2-1-3 0-3 1l-6 63c-1 19-4 39 2 57l1-1-8 2v2l4 14v13c0 2 0 5 2 7l6 8 3-1c-4-2-7-3-10-2l-2 1c-3 38 23 70 43 100 1 1 4 0 2-2z" class="st2"/>
      <path d="M494 828a661 661 0 0 1 41 246c0 2 3 2 3 0a666 666 0 0 0-42-247c0-2-3-1-2 1z" class="st2"/>
      <path d="M485 891c15 9 27 22 36 37 1 2 3 1 2-1-8-16-21-29-36-38-2-1-3 1-2 2zM488 854c9 7 16 14 21 23 1 2 3 1 2-1-5-10-12-18-21-24-2-1-3 1-2 2zM532 973c2-12 6-24 11-36 1-1-2-3-3-1-5 12-9 24-11 37 0 2 3 2 3 0z" class="st2"/>
      <path d="M540 917c9-31 25-58 41-86h-3c8 40 15 80 20 120l2-1-11-1c-1 0-2 2-1 3 6 5 5 13 5 19l-3 27 2-1-8-1-2 2c8 14-4 27-10 39-5 11-9 24-11 36 0 2 3 3 3 1 2-15 7-30 15-43 6-11 13-23 6-34l-1 2 7 1 2-2 3-31c0-6-1-13-6-17l-1 3h11l1-1c-5-41-12-82-20-122h-3c-16 27-32 55-41 86-1 2 2 2 3 1z" class="st2"/>
      <path d="M578 834c-10 60-17 120-21 181h3c4-61 11-120 21-180 0-2-3-2-3-1z" class="st2"/>
      <path d="M548 895c4 14 8 27 14 41 0 2 3 1 3-1-6-13-10-27-15-41 0-2-3-1-2 1zM206 954c34-11 72-19 108-17 19 1 36 7 54 12l52 16c20 6 40 10 60 11 2 1 2-2 0-3-37-2-74-15-109-26-17-5-34-11-52-12-18-2-36 0-54 2-21 3-41 8-60 14-2 1-1 4 1 3z" class="st2"/>
      <path d="M312 936c30-7 59-13 88-21 28-8 56-21 85-25 2 0 2-3 0-3-29 4-56 16-84 24-29 9-59 15-89 22-2 0-1 3 0 3zM528 883h24c2 0 2-3 1-3h-25v3zM244 1072c34-5 67 4 100 9 16 3 32 4 47 4 18-1 36-3 54 1 1 0 2-3 0-3-17-3-34-2-52-1-17 0-35-2-52-4-32-6-65-13-98-9-2 1-1 4 1 3zM444 1111c0-3 12-1 14-1 3 0 12-2 14 1v-2c-5 3-10 5-16 4-2 0-2 3 0 3 6 1 12-1 18-4v-3l-4-2h-15c-4 0-14-2-14 4 0 2 3 2 3 0zM446 1062c-2 1-4 1-6-1v2c2-1 5-3 9-3l7 2 7-1c4-1 7 0 11 2 1 1 3-2 1-3l-8-2c-4-1-8 2-11 1-4 0-6-2-10-1-3 0-5 1-8 3v2c3 2 6 3 9 2 2-1 1-4-1-3zM295 1104c5 7 11 1 17-1l13 2c5 0 10-2 15 1 1 1 3-1 1-3-2-1-5-2-8-1-5 0-9 1-14-1h-9c-4 2-10 6-14 1-1-1-3 1-1 2zM618 1084c6-2 11-2 18-1 5 1 8-1 11-2 4-2 7-1 11 1l4 1c5 1 12-2 17 2 1 1 3-1 2-2-4-4-8-3-13-2-4 0-7-1-10-3l-6-2-6 2c-5 2-7 3-12 2-6-1-12-1-17 1-2 1-1 4 1 3zM1276 924c35-17 71-33 108-44a372 372 0 0 1 183-9c2 1 3-2 1-3a373 373 0 0 0-233 26l-61 27c-2 1 0 4 2 3zM1438 927a437 437 0 0 1 110-25c9 0 26-4 33 4 1 2 4 1 3-1-6-8-16-7-25-6a431 431 0 0 0-122 25c-1 1-1 4 1 3zM1276 863c27-6 56-3 81 9 2 1 3-2 2-3-26-12-56-15-84-9-2 0-1 3 1 3zM1337 1000c4-5 11 1 15 3 4 1 7 1 11-1 5-2 10 0 16 0s11-6 16-1c2 1 4-1 2-2-3-3-7-4-12-2l-6 2-6-1h-7c-4 1-7 4-11 3l-9-4c-4-2-9-2-12 1-1 2 2 4 3 2zM1452 1077c-6-20-9-41-8-63l-3 2 7 3c1 0 2 0 2-2 2-20 6-40 14-59h-2l3 2h2c8-10 16-19 26-27h-2c7 10 6 23 6 34a214 214 0 0 1-35 107c-1 2 2 3 3 2a214 214 0 0 0 35-111c0-12 0-24-7-34h-2c-10 8-18 17-26 27h2l-4-2c-1-1-2 0-2 1-8 19-12 40-14 60l3-1-7-3c-1-1-2 0-2 1-1 22 2 43 8 64 1 2 4 1 3-1z" class="st2"/>
      <path d="M1497 1001c6-14 14-28 23-42l-1 1c5 2 9-4 12-8 5-7 12-13 20-17l-2-1c9 28 3 58-14 82l-26 32c-10 10-20 20-32 26-2 1-1 3 1 2 13-6 23-15 33-26 10-10 20-22 28-34 17-25 22-55 13-83l-2-1a69 69 0 0 0-21 18c-2 2-5 9-10 7l-1 1c-9 13-17 27-24 42-1 2 2 3 3 1zM1483 951c-7 19-16 37-20 57-5 20-8 41-11 61 0 2 3 2 3 1 3-21 6-41 11-61 4-20 13-39 19-58 1-1-2-2-2 0z" class="st2"/>
      <path d="m1535 966-33 53c-10 16-21 32-28 50-1 2 2 2 3 1 7-19 18-35 29-51l32-52c1-2-2-3-3-1zM1456 969c1 10 3 20 7 29 1 2 4 2 3 0-4-9-6-19-7-29 0-2-3-2-3 0zM1464 1017c12-10 22-20 32-32 1-1-1-3-2-2-10 12-20 22-32 32-1 2 1 4 2 2z" class="st2"/>
      <path d="M1510 970c-1 10-1 20 1 30 0 2 3 2 3 0-2-10-2-20-1-30 0-2-3-2-3 0zM332 646c-14-4-25-19-25-34 1-17 16-35 33-34 19 0 29 23 27 39-2 20-21 32-40 27-2-1-2 2 0 3 14 4 31-2 39-16 8-13 5-31-4-44-8-12-24-16-38-8-12 8-21 23-19 38 1 14 12 27 26 31 2 1 3-2 1-2zM302 721c3 4 7 6 12 7l7-1c4-1 7-4 12-3s9 4 15 4c6-1 12-5 18-5 6 1 11 5 17 6s9-1 13-3c12-6 24 1 36-3 2 0 1-3-1-3-10 4-21-2-32 1-6 2-10 6-16 5l-15-6c-5-1-9 1-14 3l-8 2c-4 0-7-2-10-3-4-2-8-1-12 1-7 3-15 3-20-4-1-1-3 1-2 2zM379 695c8 5 17-2 25 2 3 2 5 4 9 4 3 0 5-3 8-5 5-4 10-3 15 0 5 1 9 3 14 2 10 0 21-4 31-1 2 1 3-2 1-3-9-3-18 0-27 1-5 1-10 1-16-1-4-2-8-4-13-4l-7 4c-2 2-4 4-7 4s-4-2-7-3c-7-5-17 2-24-2-2-1-3 1-2 2zM1267 633c6-2 10-2 15 2 3 1 5 3 8 3 6 1 12 0 17-1 7-2 13-5 20-5s13 5 20 5c14-1 22-15 37-13 13 1 25 9 38 3 2-1 0-3-2-3-13 7-27-4-40-3-6 0-11 2-17 5-6 4-13 9-21 8l-10-4h-8c-7 0-13 2-18 4-7 2-15 3-21-1-3-2-5-4-8-4-4-1-8 0-11 1-2 1-1 3 1 3zM1375 659c6-3 13-4 19-1 3 2 6 4 10 4 10-1 16-9 26-5 3 1 5 3 9 2 4 0 7-4 10-5 9-4 20 1 29-1 2 0 1-3-1-3-9 3-19-2-28 1-4 1-8 5-12 5-5 0-9-4-14-3-9 0-16 9-25 4-8-4-16-5-24 0-2 1 0 3 1 2zM1298 809c6-2 10-1 16 2l10 1 12-4c6-2 10 2 15 4 8 3 14-3 22-5 9-2 18 5 27 3 2 0 1-3 0-3-10 2-18-5-27-3l-13 5c-6 2-10-1-15-4-8-3-14 2-21 4-6 1-9-2-14-3-4-2-9-1-13 0-2 0-1 3 1 3z" class="st2"/>
      <path fill="#666" d="m1490 1112-402 77-481-150 641 2 242 71z" opacity=".2"/>
      <path fill="#666" d="m1334 1074-339 82-382-117 518-44 203 79z" opacity=".2"/>
    </g>
    <g id="gift">
      <path d="m607 737 4 299 380 85-1-346-383-38zM1270 710l-2 330-276 81-1-350 279-61z" class="st22"/>
      <path d="m988 774-380-39 250-64 409 40-279 63z" class="st22"/>
      <path d="m1080 693-97-7-192 70-2 319 86 20-4-329 209-73z" class="st23" style="fill: rgb(160, 88, 232);"/>
      <path d="m1108 1086 80-24-3-330-390-46-67 17 381 59-1 324z" class="st23" style="fill: rgb(160, 88, 232);"/>
      <path d="M1115 544c9 4 10 27 5 46-19 71-143 100-149 89-2-4 19-13 64-58 50-49 68-82 80-77zM859 591c2 11 8 24 46 61 26 24 38 36 42 34 7-5-17-53-40-88-12-17-32-48-43-44-7 3-8 23-5 37z" class="st22"/>
      <ellipse cx="954.4" cy="699.4" class="st23" rx="26.6" ry="28.1" style="fill: rgb(160, 88, 232);"/>
      <path d="M955 688a1453 1453 0 0 0 136-152c6-1 17-2 22 5 7 9-4 27-9 36-27 44-111 91-149 111zM865 553c4-4 15 3 22 7 57 34 63 114 65 129-46-60-96-128-87-136z" class="st23" style="fill: rgb(160, 88, 232);"/>
      <path d="M627 791c46 0 92 0 137 2 46 2 92 9 137 17l77 14c2 0 3-2 1-3a1197 1197 0 0 0-273-32l-79-1v3zM1016 823c76-23 155-41 234-54 2 0 1-3-1-3-79 13-157 31-234 54-2 0-1 3 1 3zM878 960v91c0 2 3 2 3 0v-91c0-2-3-2-3 0zM888 1033v45c0 2 3 2 3 0v-45c0-2-3-2-3 0zM1095 883v73c0 2 3 2 3 0v-73c0-2-3-2-3 0zM1101 984v49c0 2 3 2 3 0v-49c0-2-3-2-3 0zM735 879v40h3v-40c0-2-3-2-3 0zM727 929v32c0 2 3 2 3 0v-32c0-2-3-2-3 0z" class="st3"/>
      <path d="m1263 1040-271 82V778l273-62-2 324z" class="st24"/>
      <path d="m1269 1041-276 76-2-302 122 112 155-51 1 165z" class="st24"/>
      <path d="M1119 549c-5-1-10 33-27 60-15 25-46 55-114 72 8-1 22-3 37-7 17-5 86-25 104-79 7-22 4-45 0-46z" class="st25"/>
      <path d="m872 763 87 59-80-14a1325 1325 0 0 0 40 297l-42-11-5-331z" class="st26"/>
      <path d="m879 764 128-18-56-8-31 11c-8 2-13 3-22 7l-19 8z" class="st27"/>
    </g>
    <g style="">
      <g id="hand_r">
        <path d="m716 220 3 34c3 35 5 65 13 89 6 18 21 52 57 86a110 110 0 0 1-33 50c-29-29-45-57-53-76a395 395 0 0 1-17-180l-16-15-17-16c1-2 6-2 28 6-19-24-27-37-25-39 2-1 12 6 30 22-13-34-16-44-14-45s9 7 29 40c-4-26-3-32-1-33 3 0 9 16 11 21 4 11 6 21 7 27 17-13 21-12 22-11 3 3-5 16-7 19-6 10-12 17-17 21z" class="st22"/>
        <path fill="#666" d="M673 138c-2 1 5 18 13 32l16 24 11 17a297 297 0 0 0 2 147c12 43 34 74 50 93l23-21c-33-32-47-64-54-82-10-26-12-51-15-72-2-23-2-42-2-56 5-4 13-11 18-21 1-3 8-16 5-18-4-3-17 6-22 10-12-38-16-47-18-47-1 0-2 4-2 9-1 10 1 19 3 24l-28-39z" opacity=".1"/>
        <path d="M737 190a49 49 0 0 0-28 39 258 258 0 0 0 54 178 321 321 0 0 1-46-188 112 112 0 0 0 20-29z" class="st26"/>
      </g>
      <g id="hand_l">
        <path d="M887 424c-7 3-13 6-16 12-7 12 2 29 4 33 6 10 14 16 20 20a208 208 0 0 0 122-154c6-29 7-55 6-72l21-35c8-13 12-19 11-21-2-1-7 0-24 12 6-24 8-37 6-38s-8 9-19 30c2-29 1-43-2-44-3 0-8 16-16 47-5-22-8-32-11-32-2 0-3 16-2 46-15-8-24-11-26-9-3 4 7 18 29 42 1 9 1 24-3 42-2 9-15 72-58 96-14 8-27 18-42 25z" class="st22"/>
        <path d="M1037 181c-2-1-4 8-15 24l-5 8c-3 9 2 14 2 22 0 5-3 12-16 21 3 8 5 18 6 31 2 52-25 89-34 105-9 15-36 54-100 77 0 3 2 10 8 15l10 6a201 201 0 0 0 104-97c28-54 28-106 26-132a9637 9637 0 0 0 31-54c-1-1-4-1-13 6l-10 6c7-30 7-38 6-38z" class="st32"/>
        <path fill="#666" d="M1041 232c-23 14-28 26-29 35l1 12v33c0 27-11 51-24 80-7 15-17 35-33 57a226 226 0 0 0 66-185l19-32z" opacity=".3"/>
        <path fill="#666" d="M961 221c22 11 28 13 29 12s-3-5-6-7l-8-3c-6-3-8-3-10-3l-5 1z" opacity=".1"/>
      </g>
      <g id="leg_r" style="">
        <path d="M663 851c-1 5 4 11 13 23l12 14c-4 8-12 26-8 47 1 6 3 17 9 19 10 2 26-26 32-39 7-15 10-29 11-39l-31-42c-21 2-36 9-38 17z" class="st23"/>
        <path d="M786 638c6 49-4 69-15 77s-21 6-46 13c-21 6-38 15-49 22a150 150 0 0 0 42 83 53 53 0 0 1-58 29c-17-15-41-42-53-83-4-16-10-37-1-61 5-15 13-24 28-40 6-6 28-29 69-51 23-12 35-19 49-16 18 4 29 19 34 27z" class="st18"/>
        <path d="M762 635c-16 10-38 24-64 43-45 32-66 49-73 67-8 18-3 50 62 113a40 40 0 0 0 29-24 152 152 0 0 1-41-83c21-15 39-21 52-23 19-4 35-3 47-15 6-7 8-14 10-20 7-19 4-35 2-44l-24-14z" class="st24"/>
        <path d="M756 649a149 149 0 0 1-74 97c13-8 25-13 33-15l37-10c14-4 18-5 22-9 2-2 6-7 10-25 1-9 3-22 2-39l-30 1z" class="st32"/>
        <path d="M675 748a134 134 0 0 0 23 106 45 45 0 0 0 18-20 147 147 0 0 1-41-86z" class="st35"/>
      </g>
      <g id="leg_l" style="">
        <path d="m733 846 20 28c-4 10-13 38 1 60 2 4 6 11 12 11 12 0 21-30 23-36 3-10 6-25 4-45-5-29-26-44-40-41-13 3-19 21-20 23z" class="st23"/>
        <path d="M857 634c8 54-9 73-15 78s-12 7-44 18l-51 17a150 150 0 0 0 42 83 53 53 0 0 1-58 29c-17-15-42-43-53-83-4-16-10-38-2-62 6-15 13-23 29-40 6-5 28-29 68-50 24-13 36-19 50-16 18 4 29 19 34 26z" class="st18"/>
        <path d="M791 632c-3 10-10 26-22 43-29 42-63 44-73 68-7 17-2 49 63 113a63 63 0 0 0 29-24 160 160 0 0 1-42-85l53-18c25-7 37-10 47-22 6-8 8-16 10-22 5-16 4-30 2-38l-67-15z" class="st24"/>
        <path d="M828 646c-2 10-5 20-10 31-21 42-58 62-75 70l47-15 24-8c22-8 26-10 30-14 7-7 9-14 11-25 2-9 4-22 2-39h-29z" class="st32"/>
        <path d="M747 745a134 134 0 0 0 23 106 45 45 0 0 0 18-20 147 147 0 0 1-41-86z" class="st35"/>
      </g>
      <g id="torso" style="">
        <path d="M786 423a100 100 0 0 0-38 68c-2 15 0 28 2 37a133 133 0 0 1-29 90 179 179 0 0 0 137 35 719 719 0 0 0 38-163c-5-3-17-9-24-24 0-1-9-22 1-35 6-8 15-7 15-10 0-6-61-28-102 2z" class="st22"/>
        <path d="M813 412a70 70 0 0 0-1 33h-1c0 9 10 53 3 94-8 48-34 85-46 101a152 152 0 0 0 90 12 725 725 0 0 0 36-161c-5-4-21-15-25-35-1-6-3-16 3-25 5-8 13-10 16-11-38-14-70-18-75-8z" class="st27"/>
        <path d="M869 462a250 250 0 0 1-71 188 123 123 0 0 0 60 2 609 609 0 0 0 37-162 67 67 0 0 1-26-28z" class="st35"/>
        <path d="M801 427c5 9 14 15 25 15 16 1 29-13 27-18-1-4-11-6-52 3z" class="st25"/>
      </g>
      <g id="head" style="">
        <path d="M773 297c-3-1-6 16-13 43-11 42-17 53-10 67 1 3 6 13 16 17 11 4 27 1 35-8 17-22-17-66-25-112 0-2-1-7-3-7z" class="st19"/>
        <path d="M802 401a44 44 0 0 1-2 27 59 59 0 0 0 40-3 98 98 0 0 1-8-31 26 26 0 0 1-30 7z" class="st22"/>
        <path d="M774 308c-10 26-9 61 11 87l8 8c14 1 24-1 31-3 4-1 9-2 14-6 11-7 15-18 17-23l7 3c9-1 19-18 13-29-3-6-9-9-12-9-2-8-9-33-32-46-6-4-24-14-39-7-10 5-14 15-18 25z" class="st22"/>
        <path d="m805 407-1 1c-2 0-2 2 0 2 8 1 19-4 25-9 2-1 0-4-1-2-7 4-16 9-24 8v3h1c2-1 1-4 0-3z" class="st3"/>
        <path d="m805 409 19-5c1-1 1-4-1-3l-19 5c-2 0-1 3 1 3z" class="st3"/>
        <path d="m805 407 7-1c2 0 1-3-1-3l-6 1c-2 0-2 3 0 3zM824 356c2 0 2-3 0-3s-2 3 0 3zM833 354l-1-1-2 1 2 2 1-2zM828 362c2 0 2-3 0-3v3zM777 349c2 0 2-3 0-3s-2 3 0 3zM784 347c2 0 2-3 0-3s-2 3 0 3zM783 354v-3c-2 0-2 3 0 3z" class="st3"/>
        <path d="M769 327c-2-3-7-10-7-20 0-7 3-12 4-15 5-9 11-14 17-18 5-4 15-11 29-12 18-2 32 7 42 13 18 13 26 28 28 32l7 19 8 30c4 20 5 21 4 25-1 15-10 25-12 26-13 14-31 13-37 13-8 0-11-3-12-4-8-5-9-16-9-18a44 44 0 0 0 22-31c7 2 15-1 18-6 5-8-1-20-9-21-1-1-4-1-7 3a98 98 0 0 0-53-52 58 58 0 0 0-33 36z" class="st19"/>
        <path d="M828 306c4 7 11 19 10 36 0 38-37 60-40 61 3 1 26 4 42-12 9-9 12-19 12-24 2 1 6 2 10 0 1 0 8-2 10-8v-7c0-1 0-5-3-9l-6-4c-4-1-8 3-8 3a98 98 0 0 0-27-36z" class="st25"/>
        <path d="m825 429-9-26 15-5 8 27-14 4z" class="st36"/>
        <path d="M854 363a70 70 0 0 1-50 40c3 0 21 1 34-10 7-5 10-13 10-13l4-10 2-7z" class="st24"/>
        <path d="m832 427-9-26 8-3 8 27-7 2z" class="st36"/>
        <path d="m802 327-7 33c0 1-1 3 1 4 2 2 8 0 10-1 2 0 1-3-1-2l-6 1c-2-1-1 0-1-3l2-10 5-21c0-2-3-3-3-1zM777 337c4-4 10-4 14 0 2 1 3 0 2-2-5-5-13-5-18 1-1 1 1 3 2 1zM818 339c5-4 12-2 16 3l2-1c-4-7-13-9-19-4l1 2zM783 320c4-2 8-2 11 0 1 1 3-1 1-2-4-2-9-2-13 0-1 1 0 3 1 2zM819 321c5-1 10 0 14 3 1 1 2-1 1-2-5-3-10-4-15-4-2 1-1 3 0 3zM787 376c11 4 23 1 32-6 1-1-1-3-2-2-8 7-19 9-29 6-2 0-2 2-1 2z" class="st3"/>
      </g>
    </g>
  </g>
</svg>