<?xml version="1.0" encoding="utf-8"?>
<svg viewBox="0 0 1600 1200" xmlns="http://www.w3.org/2000/svg">
  <style>.st0{fill:#e8e8e8}.st1{fill:#161616}.st2{fill:#5222d0}.st3{fill:#ec615b}.st4{fill:#fff}.st5{fill:#161616;stroke:#161616;stroke-width:2;stroke-miterlimit:10}.st6,.st8{opacity:.11;fill:#666}.st8{opacity:.17}.st10,.st15{opacity:.22;fill:#666}.st15{opacity:.15}</style>
  <g id="ground" transform="matrix(1.162495, 0, 0, 1.398005, -165.934387, -407.038452)" style="">
    <path d="M165 976h1351v-3H165c-2 0-2 3 0 3z" class="st0"/>
    <path d="M538 972a56 56 0 0 1-31-37c-1-5 1-10 7-9 4 0 7 3 9 5l2-2c-6-4-11-10-15-17-2-5-7-21 2-22l1-2c-8-17-10-35-12-53-1-9-1-19 5-26 8-8 19-2 26 4 12 13 18 31 25 47 7 17 13 34 17 52 5 20 7 41 6 62 0 2 3 2 3 0 2-43-10-84-27-123-6-16-14-37-30-46-6-3-13-4-19 0s-9 12-9 19c-1 11 1 22 3 33s4 22 9 32l1-2c-9 1-7 14-5 20 3 10 9 19 18 24 1 1 3-1 2-2-5-4-11-9-18-6s-5 11-3 17c5 15 17 28 31 34 2 1 3-1 2-2z" class="st0"/>
    <path d="M570 885c-4-24-3-48 5-71l11-33c3-9 8-25 21-17 9 5 11 20 13 29l5 35a439 439 0 0 1-16 145c-1 3 2 3 3 2a385 385 0 0 0 9-190c-2-9-5-20-14-25-7-3-15 0-19 7l-5 13-6 19c-5 14-9 27-11 41-2 15-1 30 1 45 0 2 3 2 3 0zm-61-78c29 51 52 107 57 166 0 2 3 2 3 0-5-59-28-115-57-167-1-2-3-1-3 1z" class="st0"/>
    <path d="M601 762c3 18 2 35 1 53l-2 52c-2 35-2 71-9 105 0 2 3 3 3 1 7-35 8-71 9-106l2-54c1-17 2-34-1-52 0-1-3-1-3 1z" class="st0"/>
    <path d="M573 813c12 17 21 36 26 57 1 2 3 1 3-1-5-21-14-41-27-58-1-1-4 0-2 2zm47-21c-8 15-14 30-19 46 0 2 2 3 3 1 4-16 11-31 19-46 1-1-2-3-3-1zm-108 97c21 9 38 25 49 45 1 1 4 0 3-2-12-20-30-36-52-45-1-1-2 2 0 2zm28-67c-2 17-1 34 2 51 0 2 3 1 3-1-3-16-4-33-2-50 0-2-3-2-3 0zM183 972a98 98 0 0 1-5-30v-7c2-1 3-1 5 1 1 1 2 0 2-1a63 63 0 0 1 2-19l2-7h3a177 177 0 0 1 29-62c3-4 8-11 12-3 5 7 6 18 6 27 1 18-3 37-9 54-5 17-12 34-25 47-1 2 1 4 2 2a182 182 0 0 0 35-88v-24c-1-7-3-16-7-22-9-11-19 10-23 16-10 16-18 34-23 52h3c-3-4-6 0-7 2-3 8-3 17-3 24l3-1c-2-1-5-4-8-2-3 1-2 5-2 8-1 11 1 23 5 34 1 2 4 1 3-1z" class="st0"/>
    <path d="M229 840c-3 24-9 47-17 69-7 21-20 42-23 64 0 2 3 2 3 0 2-12 6-23 11-34a436 436 0 0 0 29-98c0-2-2-3-3-1z" class="st0"/>
    <path d="m202 876 4 47c1 2 4 1 3 0l-4-47c0-2-3-2-3 0zm18 18c8-8 15-17 21-27 1-1-2-3-3-1-5 9-12 18-20 26-1 1 1 3 2 2zm-48 77a152 152 0 0 1-22-48l-2-8c-1-2-3-13 0-12 2 0 3-1 2-2a292 292 0 0 1-3-61c0-3 1-7 3-9 5-6 10-1 13 3 14 20 23 45 28 69 0 2 3 1 3-1a189 189 0 0 0-25-64c-3-5-7-11-12-13-13-2-14 20-14 27-1 17 1 34 4 50l2-2c-12-2-2 25 0 30 4 15 11 30 20 43 2 1 4-1 3-2z" class="st0"/>
    <path d="M152 829c12 34 21 70 29 105 0 2 3 1 3-1-8-35-18-71-29-105 0-2-3-1-3 1z" class="st0"/>
    <path d="M145 875c12 5 22 14 28 25 1 2 3 0 2-1-6-12-16-21-28-27-2 0-4 2-2 3zm28-26c-3 10-4 20-5 30 0 2 3 2 3 1 1-10 2-20 5-30 0-2-3-2-3-1zm1210 125c-8-19-10-40-6-60l-2 1c3 0 4 1 6 3 0 2 3 2 3 0a117 117 0 0 1 2-40l2-6 1-3 1-5 3 1c3-18 12-35 25-48h-2c5 5 5 12 6 19a330 330 0 0 1 1 58c-1 27-5 53-12 79-1 2 2 3 3 1a393 393 0 0 0 12-126c-1-10 0-25-8-33h-2a92 92 0 0 0-26 49c-1 2 1 3 2 2l1-1v-1c-1-2-3-3-5-1l-2 5-3 10c-3 13-4 27-3 40l3-1c-1-3-4-5-8-5l-1 1c-4 21-2 43 6 62 1 2 4 1 3-1z" class="st0"/>
    <path d="M1428 894a103 103 0 0 1 29-59c2-2 7-7 10-3l1 7c0 10-2 20-3 29-6 38-19 74-39 106-1 2 1 3 2 2a285 285 0 0 0 42-121c0-7 2-16 0-23-5-14-21 7-25 12a97 97 0 0 0-20 49c0 2 3 3 3 1z" class="st0"/>
    <path d="M1426 886c-1 17-3 34-7 50 0 2 3 3 3 1 4-17 6-34 7-51 0-2-3-2-3 0zm39-56-50 143c0 2 3 3 3 1 16-48 32-96 50-143 0-2-3-3-3-1zm-49-11-24 156c0 1 3 2 3 0l24-156c0-1-3-2-3 0z" class="st0"/>
    <path d="m1389 863 10 61c1 2 4 1 3-1l-10-61c0-2-3-1-3 1zm34-15c-7 11-12 23-17 35-1 2 2 3 3 1 5-12 10-24 17-35 1-1-2-3-3-1zm13 12v51c0 2 3 2 3 0v-51c0-2-3-2-3 0zm-937 154c7-4 15-5 22-3s12 5 19 4l19-2 11 1 9 3c2 0 2-3 0-3-4 0-7-3-11-4h-10l-21 3-21-6c-6-1-13 1-18 5-2 1 0 3 1 2zm255-8 29-1 15-1 11 4h9c6-2 11-3 17-3l28 2c2 0 2-3 0-3l-29-2-13 2c-5 1-9 2-14 0-8-4-16-3-23-2l-30 1c-2 0-2 3 0 3zm359 101c10 1 20-1 30-3l18-2c7-1 12 1 18 2s11 2 16 1l16-2c11-2 22 4 33 3 2 0 2-3 0-3-10 1-20-4-31-4l-15 3c-7 1-13 0-20-1-10-3-19-3-29-1-12 2-23 5-35 4-2-1-3 2-1 3zm277-98c20-6 42 0 62-3 6-1 12-2 18-1 5 0 9 2 14 3l15-2 18 1c2 0 3-2 1-3l-15-1-16 2-15-3c-6-1-11 0-17 1l-34 1c-11-1-22-1-32 2-1 1-1 4 1 3z" class="st0"/>
    <path d="M563 1087h248c2 0 2-3 0-3H563c-2 0-2 3 0 3zm230 16h127c2 0 2-3 0-3H793c-2 0-2 3 0 3zm323-48h133c2 0 2-3 0-3h-133c-2 0-2 3 0 3zm184 5h80c2 0 2-3 0-3h-80v3zm-1087-31h142v-3H213c-2 0-2 3 0 3zm135-11h78c2 0 2-3 0-3h-78c-2 0-2 3 0 3zm449 25h102c2 0 2-3 0-3H797c-2 0-2 3 0 3z" class="st1"/>
  </g>
  <g id="background" transform="matrix(1.317812, 0, 0, 1.334652, -241.394012, -384.368286)" style="">
    <path d="M1238 524c0-7 15 0 19 0 5-1 6-7 12-6 4 1 8 3 12 2l7-2c4-1 8 0 10 3 2 1 4-1 3-2-5-5-10-6-16-3h-12c-2-1-5-2-7-1-3 0-4 1-6 3-6 5-10 1-16 0-4-1-9 1-9 6-1 2 2 2 3 0zm17-15c0-6 12-1 15-1 5 1 6-2 9-4 6-5 11 1 17 1l4-2c4-2 8-3 11 0 2 2 4 0 2-2-4-3-9-4-14-2-2 2-1 3-4 3l-7-2h-8c-4 1-4 6-11 5l-9-2c-4 0-8 2-9 6 0 2 3 2 4 0zM306 871c4-3 7-5 12-2l6 2c4 1 8-1 12-3s7-3 11-1c2 1 3 3 6 3 5 1 12-3 16 0 1 2 3 0 2-2-4-3-9-2-13-1-3 1-5 1-8-1l-4-2-6-1-8 3c-5 2-8 2-13 0-6-3-10-2-15 2-1 1 0 4 2 3zm29-16c6-7 18 2 26 0 4-1 6-2 9-1l5 3c4 1 7 1 11-1 2-1 0-3-2-3-7 4-10-2-16-3l-5 1-10 1c-7-2-15-5-21 1-1 2 1 4 3 2zm215-410c-8-6-2-19 8-17 4 1 7 4 7 9s-4 9-9 10c-2 0-2 3 0 3 6-1 11-6 12-12s-4-12-10-13c-13-3-20 15-9 23 1 1 3-2 1-3z" class="st2"/>
    <path d="M247 765c-5-5 0-15 8-13 9 2 7 15-3 15-2 0-2 3 0 3 6 0 11-4 12-9 1-6-3-10-8-12-11-4-18 10-11 18 2 2 4 0 2-2zm516-31c-4 2-6 6-8 10-1 6 2 13-1 17-2 2-6 4-7 7v4l1 4c0 3-2 4-5 5-1 1 0 4 2 3 3-2 7-4 7-9 0-2-3-4-2-7l5-4c2-2 4-5 4-8-1-4-2-7-1-11l6-9c2-1 1-3-1-2zm15 10c-9-1-10 9-9 16 0 3 0 6-2 9l-4 4 1 5c1 5-2 8-5 11-2 1 0 3 2 2l6-9-1-5 4-7c2-3 2-7 2-10-1-5-1-14 6-13 2 0 2-3 0-3zm9-370c0-7 12-4 16-7 3-1 5-4 7-7l3-5c2-3 5-3 9-3 5-1 9-3 12-7 1-1-1-3-3-2-2 4-6 5-10 6l-7 1c-4 2-5 6-7 9s-3 5-6 6l-10 2c-4 0-7 3-7 7 0 2 3 2 3 0zm9 13c3-5 9-7 14-9 4-2 6-5 7-9 2-7 8-7 14-7 3-1 6-2 8-6 1-2-2-3-3-1-2 5-9 4-13 4-4 1-7 3-8 7s-2 6-5 8l-7 4c-4 1-8 3-10 7-1 2 2 3 3 2zm450 458c-2-7 5-15 13-10s3 16-6 16v3c12 0 18-14 8-21-9-7-21 3-18 13 1 2 4 1 3-1zm-471 99c-3-5 0-13 7-12 3 1 5 3 5 6s-2 5-5 6c-2 0-2 3 0 3a9 9 0 0 0 2-17c-9-4-16 7-11 16 1 1 3 0 2-2zm425-587c-3-3 2-8 5-6 5 3 2 8-2 10-2 0-1 3 1 2 7-1 9-12 2-15s-13 6-8 11c1 2 4-1 2-2z" class="st3"/>
    <path d="M172 459c-6-3-2-12 4-10 8 2 5 12-2 13-1 0-1 3 1 3 10-2 12-17 1-19-9-3-14 11-6 15 2 2 4-1 2-2z" class="st2"/>
  </g>
  <g id="number_board" style="visibility: hidden;" transform="matrix(1.162495, 0, 0, 1.17735, -165.934586, -253.574936)">
    <path d="m150 528-1 121 551-2-2-119H150z" class="st2"/>
    <path d="M146 528v117c0 4 6 4 6 0V528c0-4-6-4-6 0z" class="st1"/>
    <path d="M151 529h550c4 0 4-6 0-6H151c-3 0-3 6 0 6z" class="st1"/>
    <path d="m698 526 1 123c0 4 6 4 6 0l-1-123c0-3-6-3-6 0z" class="st1"/>
    <path d="M149 651h554c4 0 4-6 0-6H149c-4 0-4 6 0 6z" class="st1"/>
    <path d="M195 579c4-10 7-21 7-32h-3l-1 86c0 2 3 2 3 0l1-86h-3c0 11-3 21-7 31 0 2 3 2 3 1zm45-2c-3-4-4-9-2-14 1-5 8-12 13-5 4 7 0 18-2 24-4 16-13 30-24 41-1 1 0 2 1 2 13 5 27 10 40 1 1-1 0-4-2-3-11 9-25 4-37-1v3a101 101 0 0 0 28-61c0-8-7-15-14-10-8 5-8 17-4 24 1 2 4 1 3-1zm47-20c10-1 21 0 31 1l-1-2c-6 8-13 14-20 19-2 1-1 3 1 2 8-3 16 2 19 9 3 6 3 13 2 20-1 6-4 12-10 16s-15 4-20-1c-2-2-4 0-2 2 6 5 14 6 21 3 8-4 13-12 14-21 2-8 1-18-5-25-5-6-13-9-20-5l1 2c8-5 15-11 21-19v-2c-11-2-21-3-32-2-2 0-2 3 0 3zm81-5-5 24c-1 4-1 5 4 6l24 1c2 0 11 3 12-1a937 937 0 0 1-37-4c-1-2 0-3 1-4l2-8 2-14h-3z" class="st4"/>
    <path d="m387 558 3 64c0 2 3 2 3 0l-3-64c0-2-3-2-3 0zm27-5c5-1 10 0 16 1h7l6-1v-2h-1 2c-1-1-3 1-1 2h2v-2l-3-1-11 1c-6-1-12-2-18-1-2 1-1 3 1 3z" class="st4"/>
    <path d="M411 552c3 7 5 15 6 23 1 1 1 2 2 1 7-2 13-2 18 3 4 5 5 11 4 18 0 5-3 13-8 15-7 3-14-1-20-4-1-1-3 2-1 2 6 4 14 8 22 5 6-3 9-11 10-18s0-15-5-20c-6-5-13-6-21-3l2 1-6-24c-1-2-3-1-3 1zm65-2c-11 7-18 19-20 32-2 9-2 26 8 30 11 5 19-10 16-19-4-8-22-9-24 1-1 2 2 2 3 1 1-5 9-6 13-5 6 2 7 9 4 15s-10 7-15 1l-3-12c-2-16 6-32 19-41 2-1 1-4-1-3zm59 12-2-6 2-1h12l19-1-1-2c-11 23-18 46-21 71h3l-1-2c0-2-3-1-2 1v2c0 1 3 1 3-1 3-24 10-47 21-69l-2-3-32 1c-7 0-4 7-2 11 1 2 4 0 3-1z" class="st4"/>
    <path d="M539 592c9 2 18 2 26-1 2-1 1-3-1-3-8 3-16 3-25 1-2 0-2 3 0 3zm74-36-14 32-7 16-7 16c-1 1 1 3 2 1 3-4 5-10 7-15l7-16 15-33c1-1-2-3-3-1z" class="st4"/>
    <path d="M614 555c-6-6-16-1-21 3-7 5-13 13-9 22 3 10 14 12 21 19 6 5 9 14 2 19-6 5-14 4-21 3-2-1-3 2-1 2 9 2 18 3 25-4 6-6 5-14 0-20-7-8-21-10-24-21-2-8 3-14 9-18 4-3 13-8 17-3 2 2 4 0 2-2zm41 3c5-5-1-12-7-12-8 0-19 5-21 13-1 7 5 14 12 14 9 0 14-8 15-16l-3 1c3 13 4 27 2 41-1 6-2 14-9 16-8 2-14-5-18-11-1-1-4 0-3 2 4 6 9 12 17 12 6 1 11-3 14-8 3-8 3-17 3-25 0-9-1-19-3-28 0-2-3-1-3 0-1 6-4 11-9 13-5 1-11-2-12-8-1-5 4-8 8-10l7-2h5c3 1 4 3 2 6-1 2 1 4 3 2z" class="st4"/>
    <path d="M841 541a60 60 0 0 0-18 25c3 1 10 5 11 11 1 7-4 13-12 21-4 5-12 12-23 18-2 0-6 0-10-2-5-3-7-7-8-8a66 66 0 0 0-28 16c1 4 5 12 15 16 3 2 8 2 17 1a110 110 0 0 0 68-49c7-12 12-21 9-30-4-12-18-18-21-19zm-60 44c5-8 13-14 21-17 2-1 1-4 0-3-10 4-18 10-24 18-1 2 2 3 3 2zm-16 1c8-17 23-30 42-35 2-1 1-4-1-3-19 5-36 18-44 37-1 2 2 3 3 1z" class="st1"/>
    <path d="M751 590c2-14 9-26 20-35 10-9 26-19 40-17 2 0 2-3 0-3-14-2-30 8-41 16a64 64 0 0 0-22 38c-1 2 2 2 3 1z" class="st1"/>
  </g>
  <g id="boy" transform="matrix(1.462683, 0, 0, 1.481374, -553.815857, -549.351868)" style="">
    <g id="leg_right">
      <path d="m921 1036 1 39c-41 12-61 20-61 24 1 5 35 3 100-5l-5-67-35 9z" class="st5"/>
      <path d="M1052 780c-6 1-5 2-37 27l-63 46c-7 4-13 7-20 13a87 87 0 0 0-21 35c-14 37-17 73-17 88s0 36 3 60c11 3 20 4 27 4 11 0 27 0 43-8l11-7a298 298 0 0 1 2-115 191 191 0 0 1 82-37c40-11 41-10 47-15 16-13 27-39 18-61-11-30-51-38-75-30z" class="st4"/>
      <path d="m1037 790-56 38c-16 12-34 23-49 36a96 96 0 0 0-27 48 350 350 0 0 0-11 135c1 2 4 2 3 0-5-41-2-83 8-124 4-19 11-38 25-53 14-14 32-24 48-36l60-42c2-1 0-3-1-2zm56 84-65 22-28 11c-8 3-15 7-19 15-1 1 1 3 2 1 5-8 14-12 22-15a921 921 0 0 1 89-31c2 0 1-3-1-3z" class="st1"/>
      <path d="M982 907c-10 42-12 86-5 130 0 2 3 1 3-1-7-43-5-86 5-128 1-2-2-3-3-1z" class="st1"/>
      <path d="M896 1047c0 6 9 5 13 5 9 1 18 2 27 1 15-1 30-5 42-14 1-2-1-4-2-3-10 9-23 13-36 14h-19c-3 0-22 0-22-3 0-2-3-2-3 0z" class="st1"/>
      <path d="M1092 841c-13-7-29 11-68 28-32 15-40 11-52 19-22 13-42 51-28 161l11-1c10-2 18-7 22-10a305 305 0 0 1 4-118l44-21c46-18 74-17 79-33 2-9-3-21-12-25z" class="st6"/>
      <path fill="#666" d="M1082 878c0-3-33-2-67 10-21 7-33 11-43 22-17 18-18 41-19 73-1 15 0 37 5 63l20-6a359 359 0 0 1 3-117l14-12c13-9 25-12 39-16 18-5 49-15 48-17z" opacity=".1"/>
    </g>
    <g id="leg_left">
      <path d="M1250 968c22-7 40-11 54-14 19-3 24-2 27 0 6 5 5 12 7 54 1 14 2 17-1 22-10 15-41 14-44 8-1-3 2-8 17-18l-1-28-51 12-8-36z" class="st5"/>
      <path d="M1075 796c-6 15-2 32 1 39 2 9 4 11 8 23 5 13 6 22 8 33l10 54c6 24 9 36 19 49 4 5 14 18 31 25l19 4a205 205 0 0 0 107-12c2-10 2-18 2-23-1-7-2-19-11-29-2-3-6-7-12-9-7-2-13-1-24 2-12 4-17 7-25 5-3 0-6-2-8-3l-8-16c-9-19-9-34-10-51-3-37-4-56-10-76-6-22-8-33-18-40-9-6-20-6-27-6-17 1-42 9-52 31z" class="st4"/>
      <path d="M1159 778c17 35 18 73 22 110 2 27 4 64 32 78 1 1 3-1 1-2-14-7-21-22-25-37-4-16-5-33-6-49-3-35-6-70-21-101-1-2-3-1-3 1z" class="st1"/>
      <path d="M1078 847c18 40 13 85 30 125 7 16 17 31 32 41 17 12 40 14 61 14 26 0 52-6 76-16 2-1 1-3-1-3-21 9-43 14-66 16-21 1-46 0-65-11-34-20-42-62-48-98-3-23-7-48-17-70 0-1-3 0-2 2z" class="st1"/>
      <path d="M1199 955c18 10 38-10 57-4 11 4 16 15 19 25 3 11 4 22 2 33-1 2 2 3 2 1 2-10 2-21 0-31s-6-21-14-27-17-6-26-4c-12 2-27 11-39 4-2-1-3 2-1 3z" class="st1"/>
      <path d="M1145 777c-17 16 17 53 17 114 1 47-11 67 5 83 21 23 71 10 76 8 9-2 27-6 29-15 1-6-6-13-12-16-20-11-39 12-56 5-13-6-16-25-22-61-4-29-1-35-7-68-3-23-8-53-20-55-5 0-10 4-10 5z" class="st6"/>
      <path d="M1172 816c-2 0-2 19-2 43-1 67 3 82 12 94 3 6 10 15 23 21 27 12 63-4 63-14 1-5-9-9-10-10-10-4-17 0-36 3l-20 3c-4-5-9-12-13-21-7-18-7-32-7-47-1-38-8-72-10-72z" class="st8"/>
    </g>
    <g id="hand_reight">
      <path d="M800 649c0-2 6-3 9-4 13-3 24-1 27 1l17 6c0-1 1-5 4-8 5-4 13-3 15-2s7 2 14 10 8 12 12 17c9 12 24 15 31 16 6 2 19 4 33-2 13-5 20-14 23-19l10-20c12-28 16-36 24-45 5-5 11-10 17-9 7 2 10 13 11 18s3 15-1 32c-1 6-6 24-20 43-6 8-14 20-28 29-7 4-17 11-32 13-13 2-23-1-32-4-9-2-25-8-42-22l-24 2c-10 1-14 2-19 0-1-1-3-3-6-3l-7 3c-3 0-7 0-10-4-2-2-2-6-2-7-1-1-4-4-5-8l-1-8 1-6c2-4 9-4 10-4l-8-5c-6-2-10-1-15-4-3-2-6-4-6-6z" class="st4"/>
      <path d="M1036 589c-8-3-15 4-19 11-7 9-13 20-18 30-10 21-16 45-35 59-2 1 0 3 1 2 16-11 24-29 31-46a255 255 0 0 1 23-44c4-5 9-12 17-9 1 1 2-2 0-3z" class="st1"/>
      <path d="M862 654c-5 2-6-4-5-7 1-2 3-3 6-4 4-1 9 0 12 2 7 3 11 9 15 15 7 10 16 19 27 24 23 9 49 4 66-13 2-2 0-4-2-2a56 56 0 0 1-45 16c-17-1-33-11-43-25-7-11-16-25-32-20-4 2-8 6-8 10 1 5 5 8 9 7 2-1 1-3 0-3zm-11-4c-8-4-16-7-25-8-8-1-19 0-25 5s2 8 6 9c9 4 20 5 29 10 1 1 3-2 1-2-5-3-11-5-17-6l-10-4-6-2c-2-3 0-4 3-5 14-6 30-1 43 6 1 0 3-2 1-3z" class="st1"/>
      <path d="M835 664c-4-2-10-3-14 0-3 2-6 7-5 11 2 5 9 5 13 6 6 1 12 1 18-2 2-1 0-3-1-3-7 4-14 3-21 1l-4-3c-3-2-2-4 0-6l2-1c3-2 7-2 11 0 1 1 3-2 1-3z" class="st1"/>
      <path d="M818 677c-2 5 0 11 5 14 7 3 15 0 21-2 2-1 1-4-1-3-4 2-9 4-13 3-6 0-12-5-9-12 0-1-3-2-3 0z" class="st1"/>
      <path d="M823 689c-2 6 2 11 7 12 8 2 14-2 19-7 2-1-1-3-2-2-3 3-7 6-11 7-5 0-13-3-11-9 1-2-2-3-2-1zm17-19c3 1 7 3 5 7-1 2 2 3 3 2v-8l-7-4c-2-1-3 2-1 3z" class="st1"/>
      <path d="M844 680c2 2 1 6-2 7-1 0-1 3 1 2 6-1 7-7 3-11-1-2-3 0-2 2z" class="st1"/>
      <path d="M846 687c2 1 2 4 0 6-1 1 1 3 2 2 3-3 3-8-1-10-1-1-3 1-1 2zm3-35 7 3c1 1 3-1 1-2l-6-3c-2-1-4 2-2 2zm14 5c2-2 5-3 8-2 2 0 3-2 1-3-4-1-8 0-11 3-2 1 0 3 2 2zm1 4c-2 8 1 17 8 22 2 1 4-2 2-3-7-4-9-12-7-19 1-1-2-2-3 0zm-21 38c6 4 13 5 20 4 10-2 19-3 29-2 2 0 2-3 0-3h-23c-9 2-16 4-24-2-2-1-3 2-2 3z" class="st1"/>
      <path d="M890 700c14 7 27 16 42 21 14 5 29 6 43 3 14-4 26-12 36-23 11-11 21-23 28-37 8-16 11-34 9-52 0-2-3-2-2 0 2 19-3 39-13 56-9 16-22 32-37 43a67 67 0 0 1-53 10c-19-4-35-16-52-24-1-1-3 2-1 3z" class="st1"/>
      <path fill="#666" d="M1040 601c-3 0-3 16-8 33-7 25-26 57-55 67-21 7-42 1-75-8-10-3-29-9-55-11-21-1-26 2-26 4 0 1 2 1 3 5l1 5c1 3 6 3 8 4l9-2 9 3c7 1 11 0 20-1 10-1 16-2 23 0 6 2 9 5 15 9 1 1 17 12 37 15 6 1 21 3 36-3 9-3 15-8 22-13 4-4 22-19 35-49 6-12 11-23 10-37-1-10-5-22-9-21z" opacity=".2"/>
      <path d="M849 690c5-2 10 0 13 1 12 4 13 1 32 4 16 2 16 7 37 13 20 7 36 12 51 7 23-7 33-30 34-29 0 0-9 22-30 32-20 10-40 5-46 4l-25-10-23-13-16 1c-9 1-13 3-21 2-2 0-10-1-11-5 0-3 2-5 5-7z" class="st8"/>
    </g>
    <g id="torso">
      <path d="M1026 593c-3 3-6 9-9 52a690 690 0 0 0 6 148 135 135 0 0 0 144-7c-6-11-13-27-18-48-6-26-3-38-6-70-4-42-6-63-19-76-24-24-78-24-98 1z" class="st3"/>
      <path d="M1080 575a209 209 0 0 1 31 160c-6 31-17 57-28 75a135 135 0 0 0 84-23c-4-7-8-17-12-29-1-2-5-14-8-32-2-12-1-17-2-37l-5-46c-3-32-6-39-11-45-7-9-15-13-19-16-12-6-23-7-30-7z" class="st10"/>
      <path d="M1141 650a1092 1092 0 0 1-27 158 108 108 0 0 0 53-23c-14-23-18-43-20-57s-1-27-4-61l-2-17z" class="st10"/>
    </g>
    <g id="head">
      <path d="M985 474c-2 5-2 11-2 22 0 8 0 20 5 34 3 10 6 21 16 30 3 3 15 15 32 15l8-1a35 35 0 0 0 11 17c2 0 8-1 14-5s9-9 10-11c-2-2-6-7-7-15l1-5a79 79 0 0 0 13-26c2 0 5 1 8-1 3-1 4-4 5-8 2-6 4-12 2-18-3-5-7-4-10-9-5-7 0-14-2-22-4-13-21-18-28-20-29-8-67 1-76 23z" class="st4"/>
      <path d="M983 488c2 1 4-3 8-7s10-8 22-9l30-3a34 34 0 0 1 27 17h9l2 11c1 0 6-5 12-3 4 1 6 6 7 8l2 12c2 0 6-6 6-7 1-2 4-8 5-17 0-7 1-12-2-17l-3-5c0-4 3-6 5-9 0-2 1-4-2-18-3-15-4-17-5-17-2 0-4 2-6 5-4 4-11 8-24 10l-1-11-5-13-3-8c-2 0-3 5-8 7l-5 1c-3 0-6 1-10 4l-16 9c-11 6-15 0-26 5-9 4-14 11-16 14-3 3-9 12-9 24 0 7 2 17 6 17z" class="st2"/>
      <path d="M983 492c-2 17 1 34 8 50 6 13 16 26 30 31 14 6 30 2 42-7 12-10 20-23 24-38 1-1-2-2-2 0-5 13-12 26-23 35-12 9-29 13-43 6-12-6-21-18-26-30-7-15-9-31-7-47 0-2-3-2-3 0z" class="st1"/>
      <path d="M1083 500c2-6 9-6 13-2 3 3 3 8 3 12 1 7-2 20-12 17-2 0-3 2-1 3 15 5 18-16 16-25-1-6-5-12-11-13-5-1-9 2-10 7-1 2 2 3 2 1zm-63-7-7 15-2 8c0 6 6 9 11 11 2 0 3-3 1-3-7-2-11-7-8-14l7-15c1-2-1-3-2-2zm-15 14-1-3v-1l1-2h-1v3l-1 4 3-1-2-3c1-2-2-2-3 0 0 2 1 4 3 5 1 1 2 0 2-1l1-7c0-2-2-3-3-3-2 1-3 3-3 5l2 6c1 1 3-1 2-2zm38-2v-4 2l-1 3h2v-6l-2 1c1 1 0 3-1 3l2 1v-4c-1-1-1-1 0 0v4-1c-1-2-4 0-2 2 1 1 3 3 4 0v-7c-1-2-3-2-5 0v7l2 1c4-2 4-6 2-8h-2c-2 2-2 6-1 8l3 1c2-3 3-8 0-10-2-1-3 0-4 2v6c1 2 4 1 3-1zm-32-17c-5-3-12-2-15 3-1 2 2 4 3 2 2-4 7-5 11-2 1 1 3-2 1-3zm28 1c5-4 12-3 14 3 0 2 3 1 3-1-3-8-13-10-19-4-2 1 1 3 2 2zm4 86c1 6 4 11 9 15 1 2 3-1 2-2-4-4-7-8-9-14 0-2-3-1-2 1zm27-19c1 7 3 13 7 19 1 1 4 0 3-2-4-5-6-10-7-17h-3z" class="st1"/>
      <path d="M1052 591c11 3 23-5 27-15 1-2-2-3-3-1-3 9-14 16-23 13-2-1-3 2-1 3zm-8-14c8-2 14-5 19-10 1-2-1-4-2-2-5 5-11 8-17 9-2 0-1 3 0 3z" class="st1"/>
      <path d="M1046 579c8-3 18-9 22-17 1-2-2-4-3-2-3 7-12 14-20 16-2 0-1 3 1 3z" class="st1"/>
      <path d="M983 481c-6-7-3-19 0-26 3-10 10-17 19-19 9-3 18-3 26-6 9-3 16-13 27-13 2 0 2-3 0-3-12 0-20 11-31 14-10 3-22 2-31 8-8 5-13 13-15 22-2 8-3 18 3 25 1 1 3-1 2-2z" class="st2"/>
      <path d="M1015 470c-1-8 1-15 5-21 5-7 12-10 20-13 6-3 11-6 15-12 4-4 7-11 12-15l-2-1c5 12 15 26 6 39-1 1 1 3 2 1 10-13 0-28-6-41l-2-1c-6 4-8 11-12 16-6 7-14 10-21 14-13 6-22 19-20 33 0 2 3 2 3 1z" class="st2"/>
      <path d="M1043 468c7-12 17-21 30-26l18-6c6-2 10-6 14-11h-2c4 8 7 17 8 25 1 10-5 17-10 24-1 1 1 4 2 2 5-7 11-14 11-24s-4-20-9-29h-2c-5 6-11 10-19 13l-18 6c-11 5-20 14-25 25-1 1 2 3 2 1z" class="st2"/>
      <path d="M1106 469c8 14 6 30-3 43-1 2 2 3 3 2 10-14 11-32 3-47-1-1-3 0-3 2z" class="st2"/>
      <path fill="#666" d="M1069 485v20c-1 16-2 29-8 41-9 15-23 23-33 27a55 55 0 0 0 37-11l5 23 9-11-8-16a157 157 0 0 0 15-30c2 0 6 2 9 0 4-2 5-7 5-11 1-4 3-16-3-21-3-2-8-3-12-1l-4 4-1-12-11-2z" opacity=".1"/>
      <path fill="#212121" d="M1046 468a117 117 0 0 0 27-49c4 8 4 15 4 18-2 13-14 21-20 25l-11 6zm21 11a104 104 0 0 0 46-33c1 4 2 12-3 20-7 12-25 18-43 13zm-66-5c0-5 0-11 2-17 5-16 16-28 18-27 1 1-2 10-20 44z" opacity=".2"/>
      <path d="M1006 538c15 1 30-2 43-9l-1-2c-13 7-27 10-42 9v2z" class="st1"/>
      <path d="m1008 539 4 11c0 1 2 1 2-1l-4-12c-1-1-3 0-2 2z" class="st1"/>
      <path d="M1012 550c6 6 16 3 22-1 8-4 14-11 15-20 1-1-1-2-2 0-1 7-5 13-11 17s-16 8-22 2c-1 0-3 1-2 2z" class="st1"/>
      <path d="M1011 543c7 1 14-1 21-3 6-2 12-5 16-10 1-1 0-2-1-1-4 4-10 7-16 9s-13 4-20 2c-1 0-2 2 0 3z" class="st1"/>
      <path d="m1012 544 2 5c1 2 3 1 2 0l-1-6-2 2h8v-2h-7v2l2 3c0 1 2 0 1-1v-3l-3 1c1 1 2 3 1 4h3c-2-3-3 0-3 1-1 1 1 2 1 1 9-6 18-9 28-12 1-1 1-3-1-2-10 3-19 6-28 12l2 1 2-2c0-1 0-3-2-4-3-1-2 4-1 6l2-1-1-5c-1-1-3-1-2 1l1 3 2-1-2-3-1 2 5-1v-2h-6c-1-1-2 0-2 1l2 5 2-1-2-5c-1-2-3-1-2 1z" class="st1"/>
      <path d="m1018 547 11-5-1-2-10 5c-1 0-1 2 1 2l27-13-2-2c-1 4-7 4-10 6l-7 3c-4 1-8 1-11 4-1 1 1 2 2 1 2-2 6-2 9-3l9-4c4-1 9-1 10-6 1-1-1-2-1-1l-27 13 1 2 10-5c1 0 1-2-1-2l-11 5c-1 1 0 3 1 2z" class="st1"/>
      <path d="M1045 536v1h-1l-1-1v1l1 1 1-1v-2h-1l-1 2 1 1 1-2zm0-9 5 4c1 1 3 0 2-1l-6-5-1 2zm-27 25c8-6 17-10 26-12 1 0 1-2-1-2-9 2-18 6-26 12-1 1 0 3 1 2z" class="st1"/>
      <path d="M1016 550c10-1 19-4 27-9 1-1 0-3-1-2-8 5-17 8-26 9v2z" class="st1"/>
      <path d="M1025 547c6-1 11-3 15-6 2-1 1-3-1-2-4 3-9 5-14 6-2 1-1 3 0 2z" class="st1"/>
      <path d="M1018 551c8 0 16-2 22-7 1-1 0-3-1-2-6 5-13 7-21 7v2z" class="st1"/>
      <path d="M1018 551c0 2 2 2 3 2l9-2c1 0 1-2-1-2l-4 1-5 1h-2z" class="st1"/>
    </g>
    <g id="hand_left">
      <path d="M1037 563c1-3 10-2 18-1l1-7 6-8 9-8c2-2 6-3 11-4l6 2 4-13c2-4 2-7 4-8 2 0 5 0 7 2 2 3 0 6-1 12l-1 16v19l3 22 10-2c10 0 17 6 22 11 10 10 14 20 17 27 5 15 6 27 6 32 0 8 1 16-4 24-1 3-4 11-13 16-3 3-9 7-18 6-4 0-9-2-13-6a89 89 0 0 1-25-43c-4-14-9-35-10-61l-7-2c-11-4-15-14-15-17-2 0-10 0-15-5l-2-4z" class="st4"/>
      <path d="M1051 570c-5-1-11-3-13-8l-1 1h24c1 0 1-3-1-3h-23l-1 2c1 7 9 10 15 11 2 0 2-3 0-3z" class="st1"/>
      <path d="M1057 559c-1-7 10-7 14-5 2 0 2-3 1-3-7-2-20-1-18 9 0 2 3 1 3-1z" class="st1"/>
      <path d="M1061 552c1-3 3-6 6-8 4-2 8 0 12 2 2 0 3-2 2-3-5-2-10-4-15-2-4 2-7 6-8 10 0 2 3 3 3 1z" class="st1"/>
      <path d="m1072 540 3-3 5-1c4 0 7 2 11 4 1 1 3-2 1-3-5-3-11-6-17-3-2 1-8 5-5 8 1 2 3 0 2-2z" class="st1"/>
      <path d="M1101 566c2-9 2-17 1-26l2-13v-8c-1-4-5-6-8-5-3 2-3 4-4 7l-4 13c-1 2 2 2 3 1l2-8c1-1 1-6 3-7 5-1 7 1 5 4l-1 4-1 5 1 15-1 17c-1 2 2 2 2 1zm-51 7c5 0 6 6 8 9l5 5c4 3 8 5 12 5 2 0 2-3 0-3-8-1-12-5-16-11-2-4-5-8-9-8-2 0-2 3 0 3z" class="st1"/>
      <path d="M1075 591c3 10 3 21 4 32a117 117 0 0 0 31 74c2 1 4-1 2-2a98 98 0 0 1-26-48c-5-19-3-38-9-57 0-2-3-1-2 1zm24-27c1 17 6 33 14 48 8 14 20 26 23 43 0 2 3 1 3-1-2-15-13-26-21-39-9-15-15-33-17-51 0-2-3-2-2 0z" class="st1"/>
      <path d="M1105 588c15-5 30 7 38 18 8 12 12 27 13 42 2 14 1 30-9 41-8 11-25 15-36 5-1-1-3 1-2 2 11 10 26 8 36-1 13-10 16-28 15-43-2-17-6-36-16-50-9-11-24-22-39-17-2 0-1 3 0 3z" class="st1"/>
      <path d="M1099 520c-5 2-5 15-5 25 2 29 3 44 8 66 8 32 16 41 20 44 6 6 17 14 22 11 8-5-4-35-7-43-11-25-13-33-20-36-5-2-9-1-12 0-5-9-5-17-5-22l1-11c0-11-2-12-1-20 2-7 4-12 2-14h-3z" class="st15"/>
      <path d="M1108 592a103 103 0 0 1 31 62c-2-5-5-13-11-22l-11-15c-3-6-7-14-9-25z" class="st15"/>
    </g>
  </g>
  <g transform="matrix(1.162495, 0, 0, 0.975551, 17.483738, 96.021141)" style="">
    <path style="fill: rgb(255, 255, 255); stroke: rgb(82, 34, 208); stroke-width: 6.54803px; stroke-miterlimit: 1; stroke-linecap: round; stroke-linejoin: round;" d="M 515.083 225.3 C 519.145 250.404 495.81 278.706 495.81 278.706 C 493.881 282.728 503.67 303.461 509.631 320.018 C 501.195 310.14 474.917 291.248 470.1 296.664 C 470.1 296.664 426.76 314.019 397.266 303.723 C 357.351 292.282 335.68 257.833 342.069 225.3 C 348.81 190.971 395.025 167.192 430 168 C 462.693 168.755 509.622 191.546 515.083 225.3 Z"/>
    <ellipse cx="386.792" cy="237.965" class="st14" rx="7.2" ry="10.5" style="fill: rgb(82, 34, 208); stroke: rgb(82, 34, 208); stroke-miterlimit: 10;"/>
    <ellipse cx="427.992" cy="236.665" class="st14" rx="7.2" ry="10.5" style="fill: rgb(82, 34, 208); stroke: rgb(82, 34, 208); stroke-miterlimit: 10;"/>
    <ellipse cx="468.092" cy="235.465" class="st14" rx="7.2" ry="10.5" style="fill: rgb(82, 34, 208); stroke: rgb(82, 34, 208); stroke-miterlimit: 10;"/>
  </g>
</svg>