<svg xmlns="http://www.w3.org/2000/svg" viewBox="0 0 1600 1200"><style>.st0{fill:#e8e8e8}.st1{fill:#fff;stroke:#161616;stroke-width:3;stroke-miterlimit:10}.st2{fill:#161616}.st3{fill:#ec615b}.st4,.st5{opacity:.4;fill:#3d3d3d}.st5{opacity:.38}.st7{fill:none;stroke:#161616;stroke-width:16;stroke-miterlimit:10}.st8{fill:#5222d0}.st9{fill:none;stroke:#161616;stroke-width:3;stroke-miterlimit:10}</style><g transform="matrix(1.178029, 0, 0, 1.15139, -146.50853, -148.403549)"><g id="background"><path d="M1085 284v10l1 1c85 12 169 2 254 2a742 742 0 0 1 73 2l2-12c1-2-2-3-3-1l-2 12 1-1c-83-8-167 2-251 0-25 0-49-2-73-5l1 1v-9h-3z" class="st0"/><path d="M1087 286h326c2 0 2-3 0-3h-326c-2 0-2 3 0 3z" class="st0"/><path d="m1106 284 7-108 2-14 1-7 6-2c5-1 13-3 16 1l1 6 2 9c1 18-1 36-2 53l-5 62c0 2 3 2 3 0l7-88c0-13 1-27-3-40 0-4-2-7-6-7-6-1-14 1-20 3l-1 1c-5 20-5 43-7 64l-4 67h3z" class="st0"/><path d="m1143 193 38 91c1 2 4 1 3-1-14-30-26-60-38-91-1-1-4-1-3 1zM1145 177c3-7 10-11 18-9 2 1 2-2 1-3-9-2-19 3-22 11 0 2 3 3 3 1z" class="st0"/><path d="m1163 169 59 115c1 2 4 0 3-1l-60-116c-1-2-3 0-2 2z" class="st0"/><path d="m1215 143 9 139c0 2 3 2 3 0l-9-139c0-2-3-2-3 0z" class="st0"/><path d="M1217 145c6-5 12-5 19-4l8 2c4 2 4 6 4 10l2 43 3 87h3l-4-104-1-26c0-4 0-10-4-12-5-3-13-4-18-4-5 1-10 2-14 5-1 2 1 4 2 3zM1165 167c10 1 19 3 28 6 8 2 17 5 24 11 1 1 3-2 1-3-7-5-16-8-24-11-10-3-19-5-29-6-2 0-2 3 0 3z" class="st0"/><path d="M1251 162c5-1 10-3 14-2 7 2 8 8 9 14l1 37 1 72c0 2 3 2 3 0l-2-86v-21c0-5 0-10-3-14-5-7-16-5-23-3-2 0-2 3 0 3z" class="st0"/><path d="M1273 146v27c0 2 3 2 3 0v-27c0-2-3-2-3 0z" class="st0"/><path d="m1278 147 2 1v2l1 5v8l1 17a1350 1350 0 0 1 3 103c0 2 3 2 3 0a1880 1880 0 0 0-4-127c0-3 0-10-3-12-2-2-5-1-6 1s2 4 3 2zM1130 299c3 5 6 13 11 17s11 0 17 2c1 1 2-2 0-3-4-1-10 1-14-1-5-3-8-12-11-16-1-2-4-1-3 1z" class="st0"/><path d="M1162 300c-1 6-2 10-5 15-1 1 2 3 3 1 3-5 4-10 5-16h-3z" class="st0"/><path d="m1153 303 3 14c0 2 3 1 3-1l-3-14c0-2-3-1-3 1z" class="st0"/><path d="M1157 303v8c0 2 3 1 3-1-1-2 0-5 1-8h-3l-1 9c0 2 3 2 3 0l1-9c0-2-3-2-3 0-1 3-2 6-1 9l3-1c-1-3 2-6-1-9-1-2-4-1-5 1s2 3 3 1zM1313 281l-1-11-1 1 53-2h41c4 2 2 10 2 13 0 2 3 2 3 0 0-4 2-14-4-16h-31l-64 2-2 2 2 12c0 2 3 1 2-1z" class="st0"/><path d="m1325 251 2 16c0 2 3 2 3 0l-3-17c0-2-3-1-2 1z" class="st0"/><path d="m1327 253 36-2c11 1 23 4 34 3l-1-1c-1 5 0 10 1 15 1 2 4 1 3-1-1-5-2-9-1-14l-2-2c-11 1-23-3-34-3l-36 2c-2 0-2 3 0 3zM1225 563v13h3v-13c0-2-3-2-3 0z" class="st0"/><path d="M1226 562h234c2 0 2-3 0-3h-234c-2 0-2 3 0 3zM1229 576h229c2 0 2-3 0-3h-229c-2 0-2 3 0 3z" class="st0"/><path d="M1458 563v9c0 2 3 2 3 0v-9c0-2-3-2-3 0zM1248 529l7 31c0 2 3 1 3 0l-7-31c-1-2-4-2-3 0zM1300 528l-6 31c0 2 2 3 3 1 1-10 3-21 6-31 0-2-3-2-3-1z" class="st0"/><path d="M1240 524c0 5 8 5 11 5l26-2h13c4 1 8 2 11 1 4-1 6-4 4-8-1-1-4 0-3 2 3 4-6 3-7 3l-7-1-14 1c-4 0-31 3-31-1 0-2-3-2-3 0z" class="st0"/><path d="M1243 523c-2-5 14-5 16-5h14c3-1 29-1 28 1-1 1 2 2 3 0 3-8-29-5-34-4-8 0-16-1-24 1-4 1-7 4-6 8 1 2 4 1 3-1z" class="st0"/><path d="M1256 515c-4-2-8-5-11-9-2-1-11-15-6-16 1 0 2-1 1-2-3-4-4-9-5-14l-5-16-1-3c-1-2-1-2 1-2 3 0 5 2 6 4 4 3 7 7 9 11 11 14 16 31 20 48 1 2 4 2 3 0-5-22-13-45-29-61-2-2-6-8-10-7-3 0-4 3-4 6 1 6 4 12 6 17 2 6 3 13 7 19l1-2c-7 1-3 10-1 13 3 8 10 13 17 17 2 0 3-2 1-3z" class="st0"/><path d="M1260 488c-1-13-1-26 3-38l10-17 3-4c1-1 2-2 4 0 3-1 4 0 4 2l1 10c0 6-2 13-4 19l-1 7 3 7c2 6-2 13-4 20l-7 19c-1 2 2 3 2 1l10-26c2-6 3-11 1-17-3-8 2-17 2-26 1-5 2-14-2-19-7-11-20 12-22 17-7 14-7 30-6 45 0 2 3 2 3 0zM1235 463c9 14 15 31 22 46 1 2 4 0 3-1-7-16-13-33-23-46-1-2-3-1-2 1z" class="st0"/><path d="M1262 456c1 5 2 10 6 14 1 2 3-1 2-2-3-4-5-8-5-12 0-2-3-2-3 0zM1276 455l7-11c1-1-1-3-3-1l-7 11c-1 1 2 3 3 1zM1306 453l-10 10-11 11c-1 1 1 3 2 2 7-7 16-13 21-21 1-2-1-3-2-2z" class="st0"/><path d="M1304 457c0 5 9 15 2 18v3c3 3 1 7 1 10l-1 11c-2 7-8 11-14 15-2 1 0 3 1 2 7-4 14-9 16-18l1-14c0-3 0-6-2-8v2c9-4-1-14-1-21 0-2-3-2-3 0z" class="st0"/><path d="M1300 472c-7 11-13 23-18 35-1 2 2 2 3 1 5-12 10-24 17-35 1-1-1-3-2-1zM1253 550c4 5 10 9 16 10 2 1 3-2 1-3-6-1-11-4-14-9-1-1-4 0-3 2zM1251 538c11 7 22 19 35 21 2 1 3-2 1-3-13-2-24-13-34-21-2-1-3 1-2 3zM1259 530l19 15 9 6 9 3c1 1 3-1 1-2-2-2-4-2-7-3l-10-6-18-15c-2-1-4 1-3 2zM1276 529c6 6 13 10 21 13 1 0 2-3 0-3-7-3-14-7-19-13-1-1-4 1-2 3zM1349 558l-1-6c0-4 3-5 6-5l13-1 22 1 22-1h11c3 1 4 2 4 5v7c0 2 3 2 3 0 0-4 1-10-1-13-1-3-5-2-8-2l-34 1c-10-1-21-2-31 0-9 1-11 7-8 15 0 1 3 0 2-1z" class="st0"/><path d="m1371 542 2-6h14l16-1h19l3 1c1 1 0 5-1 7 0 2 3 2 3 0 1-2 2-7 1-10l-5-1h-29l-13 1c-3 0-8-1-11 1s-5 7-2 9c2 2 4 0 3-1zM1391 529c-3-3 8-3 9-3 2 0 11-2 9 4-1 2 2 2 3 1 1-3 0-5-2-7-3-2-7-1-11-1-3 0-7-1-10 2-1 1-2 4 0 6 1 1 3 0 2-2zM1238 578c4 5 8 10 14 13 1 1 3-1 1-2-5-4-9-8-12-13-1-1-4 0-3 2z" class="st0"/><path d="M1251 590h17l2-4 6-9c1-1-1-3-2-2l-3 4c-1 2-2 5-4 6-2 4-12 2-16 2-2 0-2 3 0 3z" class="st0"/><path d="m1262 578 3 9c0 2 3 1 3-1l-3-9c0-2-3-1-3 1zM1384 577l6 10 4 5h7l11-1c2-1 2-4 0-3h-7l-8 1c-5-1-8-9-10-13-1-2-4 0-3 1z" class="st0"/><path d="m1412 575-2 13c0 2 3 2 3 0 0-4 0-8 2-12 0-2-3-3-3-1z" class="st0"/><path d="m1413 589 12-12c1-1-1-3-3-2l-11 12c-1 2 1 4 2 2zM771 284v85c0 2 3 2 3 0v-85h-3z" class="st0"/><path d="M773 371h107c2 0 2-3 1-3H773c-2 0-2 3 0 3zM773 286h104c2 0 2-3 0-3H773c-2 0-2 3 0 3z" class="st0"/><path d="M877 284v85c0 2 3 2 3 0v-85h-3zM827 282v-4l3-2 1 4v4c0 2 3 2 3 0l-1-7c-1-2-1-4-3-4-4-1-6 6-6 9 0 2 3 2 3 0zM777 294v68h3v-68c0-2-3-2-3 0z" class="st0"/><path d="M778 363h94c2 0 2-3 0-3h-94c-2 0-2 3 0 3z" class="st0"/><path d="M875 361v-68c0-2-3-2-3 0v68c0 2 3 2 3 0zM779 296h91c2 0 2-3 0-3h-91c-2 0-2 3 0 3zM779 347c12-3 24-6 36-1 8 4 15 10 24 11 2 1 3-2 1-2-10-2-18-10-29-14-10-3-22 0-32 3-2 1-1 4 0 3z" class="st0"/><path d="M818 345c15-5 30-6 45-5 2 0 2-3 0-3-16-1-31 0-45 5-2 1-1 4 0 3zM822 322c-2-2-1-5 1-6 1-1 4-1 5 1s1 4-1 5c-2 2-5-1-5-3s-3-2-3 0c0 4 4 8 8 7s6-6 4-10c-1-3-6-4-10-3-3 2-4 7-2 11 1 1 3 0 3-2zM1309 299c3 5 4 11 8 15s9 4 14 2c2-1 1-3-1-3-2 1-5 2-8 1-2-1-4-3-5-6l-6-11c-1-1-4 0-2 2z" class="st0"/><path d="m1331 315 13-14c1-2-2-3-3-2l-12 14c-2 1 0 3 2 2zM1324 298c1 3 2 7 1 10 0 2 3 2 4 0l-3-12c0-1-3 0-2 2zM1244 689v40c0 2 3 2 3 0v-40c0-2-3-2-3 0zM1207 735h106c2 0 2-3 0-3h-106c-2 0-2 3 0 3zM1265 737v25c0 2 3 2 3 0v-25c0-2-3-2-3 0zM1206 767h94c2 0 2-3 0-3h-94c-2 0-2 3 0 3zM1230 769v19c0 2 3 2 3 0v-19c0-2-3-2-3 0zM1240 285v-14c1-6 9-5 13-5 2 0 2-3 0-3l-11 1-4 2c-2 2-1 5-1 7v12c0 2 3 2 3 0zM1222 173c9-2 18-2 27 2 2 0 2-3 1-3-10-4-19-4-29-2-2 1-1 4 1 3zM1218 164c8-5 18-6 27-3 2 1 2-2 1-3-10-4-21-2-29 3-2 2 0 4 1 3zM1186 217c-3 2-10 5-10 9-1 2 0 4 1 6l4 11 20 40c1 1 3 0 2-2a436 436 0 0 1-22-47c-1-3-3-6-1-10l7-5c2-1 0-4-1-2z" class="st0"/></g><g id="hand_r"><path d="M765 707c-8 6-18 16-21 30-3 10-1 16-1 29-1 10-3 23-11 38a192 192 0 0 0-131 20l7 4c19 5 39-11 39-10 1 1-22 12-20 21 0 6 12 10 23 13 10 3 19 6 31 4 17-1 29-10 34-14l22 8c17 6 40 13 56 3 10-6 13-21 19-51 7-37 11-55 1-70-12-19-37-24-48-25z" class="st1"/><path d="M729 806c12 4 22 12 29 23 1 2 3 0 2-1-7-12-18-21-31-25-1-1-2 2 0 3zM664 825c-12 2-21 10-26 21 0 2 3 3 3 1 4-10 13-17 24-19 2 0 1-3-1-3zM678 835l-12 9c-2 2-5 5-5 8 2 10 13 8 19 5 2 0 2-3 0-3l-9 3c-5 0-9-5-5-9l14-10c1-1 0-4-2-3z" class="st2"/><path d="M859 584a153 153 0 0 0-32 15c-9 5-16 11-23 19-9 9-19 19-30 34a233 233 0 0 0-42 91c5-3 10-5 14-5 23-6 44 6 65 17l18 10 6-32 6-28 11-11c8-9 24-27 26-53 3-29-14-51-19-57z" class="st3"/><path d="M853 585c-11 1-20 7-29 14l-27 24c-16 17-30 36-42 57-1 1 1 3 2 1a283 283 0 0 1 66-77c9-8 18-15 30-17 2 0 2-3 0-2zM848 694l-22 22c-2 1 0 3 2 2l22-22c2-1 0-3-2-2z" class="st2"/><path d="m838 708-10 57 2-1c-16-11-34-19-53-24-14-4-33-8-46 3-1 1 1 3 3 2 12-11 33-5 48-1 16 5 32 13 46 23l2-1 11-58c0-1-3-2-3 0z" class="st2"/><path d="M756 678c-11 21-24 41-25 65 0 2 3 2 3 0 1-23 14-43 24-63 1-2-2-3-2-2z" class="st2"/><path d="M845 641c-18 35-28 65-34 86-8 31-11 55-32 75-4 4-14 13-30 19-34 12-60-4-81 13-3 2-10 7-9 13s8 8 9 9c9 3 18 0 30-5 13-5 11-7 17-8 12-2 18 6 34 11 7 2 27 8 42 0 11-6 14-18 19-38 4-14 8-33 7-58l12 9 16-126z" class="st4"/><path d="M839 684c-14 26-21 48-24 62-8 30-5 44-15 65-11 23-28 37-40 45 7 2 23 5 35-4 8-7 10-16 13-30l12-62 9 6 10-82z" class="st5"/></g><g id="torso"><path d="M856 582a7103 7103 0 0 0-44 343c0 3 1 8 4 12 3 5 7 8 9 9 18 13 27 20 36 24 44 21 93 19 93 19a161 161 0 0 0 79-23c15-7 18-9 22-12 9-8 12-18 14-25 5-15 5-28 4-31l-1-170c0-30 3-74 18-127l-50-24a121 121 0 0 0-56-15 1528 1528 0 0 0-127 19z" class="st3"/><path d="M856 585c31-7 62-12 93-16 2 0 3-2 1-3h-1c-2-1-3 1-2 2l2 1v-3c-31 4-63 9-94 16-2 1-1 3 1 3zM846 637c-11 79-21 157-30 236l-3 30c-1 8-3 18-2 27 1 7 7 12 12 17l19 14a189 189 0 0 0 201 2c1-1 0-4-2-3a187 187 0 0 1-208-9c-6-5-16-11-19-19v-12l2-15 3-27a8389 8389 0 0 1 30-240c1-2-2-2-3-1zM994 562c17 4 34 12 50 19 16 6 34 12 48 22 2 1 3-1 2-2-14-10-32-16-47-22-17-8-34-16-53-20-1 0-2 3 0 3z" class="st2"/><path d="M1072 732c-2 42-3 84-2 126 1 20 4 42 0 62-3 17-12 33-29 39-2 1-1 4 1 3 26-10 33-40 33-65l-2-52v-53l2-60c0-2-3-2-3 0z" class="st2"/><path d="M1058 708c-6 18-14 38-27 58-57 88-162 106-189 109a7944 7944 0 0 1 230 28c-3-45-3-82-2-108 1-55 5-99-2-100-2 0-5 2-10 13z" class="st5"/><path fill="#3d3d3d" d="m1070 741-17 43c-12 24-23 48-37 62-39 41-116 23-116 26 0 2 28 6 170 19V741z" opacity=".4"/></g><g id="table"><path d="M1249 1153 148 1006l325-188 994 98-218 237z" class="st1"/><path d="m145 1015 1103 146M1241 1163l231-244" class="st7"/><path d="M1118 949c-37 29-74 60-110 91-1 1 1 3 2 2 36-31 73-62 111-91 1-1-1-3-3-2z" class="st2"/><path d="M1010 1041c11 3 23 3 35 3 14 0 27 1 40 5 24 7 48 12 74 11 2 0 2-3 0-3-13 1-27 0-40-2-12-2-23-6-35-9s-23-5-35-5c-13 0-26 0-39-3-2 0-2 3 0 3zM1121 951c39 3 78 10 117 19 2 1 3-2 1-3-39-9-79-16-118-19-2 0-2 3 0 3z" class="st2"/><path d="M1161 1059c28-28 55-57 80-87 1-1-1-3-2-2-25 30-52 59-80 86-2 2 1 4 2 3zM1044 1029c35-4 70 0 102 13 2 1 3-2 1-3-33-13-68-17-103-13v3zM1097 1018c21 2 42 5 62 10 2 1 3-2 1-3-21-5-42-8-64-10-1 0-1 3 1 3zM1081 996c31 1 63 5 94 14 2 0 3-3 1-3-31-8-63-13-95-14-2 0-2 3 0 3zM1120 987l51 9c2 0 3-3 1-3l-51-9c-2 0-3 3-1 3zM1098 1054l-18 28a421 421 0 0 1 149 12c2 0 2-3 0-3-48-12-98-15-148-10l1 3 19-29c1-1-2-3-3-1z" class="st2"/><path d="m1219 997 58-1-1-2-40 95c-1 2 2 3 2 1l41-95-2-2-58 1c-2 0-2 3 0 3zM1146 1072l15-1c2 0 2-3 1-3l-17 1c-2 0-1 3 1 3zM1175 1072c15 1 31 2 47 5 1 0 2-3 0-3-16-3-32-4-48-5-1 0-1 3 1 3zM1175 1053h12c2 0 2-3 0-3h-12v3z" class="st2"/><path d="m1199 1053 36 3c2 1 3-2 1-2-12-2-25-4-37-4-2 0-2 3 0 3zM1197 1036l42 2v-3l-42-2c-2 0-2 3 0 3zM1103 1069l20-2c2-1 1-4-1-3l-19 2c-2 0-2 3 0 3zM1150 912c-2 3-5 10-2 14 2 2 5 2 8 2l15 1 59 2c2 0 2-3 0-3l-44-2-21-1h-11c-2-1-4-1-4-4l2-7c2-1 0-3-2-2z" class="st2"/><path d="m1153 916 50 2 25 1c8 0 15 0 21 6 1 2 3-1 2-2-4-4-10-6-15-7l-27-1-56-2c-2 0-2 3 0 3z" class="st2"/><path d="M1229 932c8 0 15-3 22-7 1-1 0-4-2-3-6 4-12 7-20 7-2 0-2 3 0 3z" class="st2"/><path d="M1232 916c-4 3-6 8-5 13 1 2 3 1 3-1-1-3 0-7 3-9 2-1 0-4-1-3z" class="st2"/></g><g id="color_1_"><path d="M502 557c-2-6-9-6-13-2s-6 12-6 18c1 11 12 17 15 27 2 5 9 6 11 2 4-8 10-15 15-22 4-7 11-17 9-25-1-3-5-6-8-7-5 0-8 3-11 6l-7 11c-2 3-3 7-7 9l9 4-4-13-10 6c5 5 13 6 18 1l6-7 2-3 3-1c2 0 2-1 0-1l-3-5v1l4-6c-8 2-5 14 3 12v-1c3 0 5-3 5-5v-1c0-2-1-4-3-5-5-4-13 0-17 3l-5 6c-1 2-2 5-4 3-4-4-12 1-10 6l4 13c1 4 5 5 8 3 6-2 8-7 11-12l5-8 3-4c-3-2-4-2-4 0l-1 2c-5 13-15 22-21 33l11 2c-2-7-6-11-10-17l-5-7 1-5 1-4c2-2 0-3-5-1 3 7 13 1 10-6z" class="st3"/><path d="M509 589c8-10 16-22 23-34 3-6-7-13-11-6-6 12-13 22-21 32-5 6 4 14 9 8z" class="st3"/><path d="M532 420c-1 10-1 20 2 31 1 5 10 3 9-3-3-8-3-17-2-26 1-6-8-8-9-2z" class="st8"/><path d="M536 424c11 5 20-4 20-15v-5h-1l2 2 4 7c4 4 9 4 14 5 2 0 5-1 7 2v9l-1 11s-1 4 1 3l-5 1-21 2c-3-1-8 0-10-3s-2-8-2-11l-8 1 7 16c2 4 8 3 8-1 3-11-1-22 3-33l-8 2c3 4 3 11 3 16 1 5 2 9 5 14 2 4 8 2 8-3l-2-36-9 2c4 11 5 23 2 34l6-2c-5-5-10-10-13-17-1-4-8-2-8 3l1 12h9c-1-5 0-10 1-15l1-5 1-4c1-1 1-2-1-2 5 7 6 17 5 25l8-2a46 46 0 0 1-4-23v-3h-2l1 2c5 9 6 20 5 30l8-2-4-12v-5l1-3v-2h-3l2 10v13h9l-2-10-2-9c3 7 2 14 0 21l8-1a34 34 0 0 1-3-13v-2h-2l-3-2c6 10-5 21-15 19l3 5v-7l-2 3h4c-5-1-6 7-1 8 4 2 9 4 14 4 4-1 8-3 9-7 2-4 3-9 2-14l-2-7-1-3-1-2-1 1 9 2v-5l-9 1c2 5 2 10 0 14-3 6 6 8 8 3 3-6 3-13 1-19-2-5-9-4-9 1v5c-1 5 6 7 8 3 2-5 2-11-3-14-5-2-11 0-13 4-3 6 4 12 4 18 1 3 1 8-2 10-3 1-9-3-12-3l-1 8c9 1 9-11 3-15-3-2-7-3-11-1s-3 7-2 11c0 2 1 5 3 5 16 2 30-11 27-27 0-4-2-7-5-8s-6 1-8 4c-3 7 1 17 4 24 2 4 7 2 8-1 2-7 3-14 2-21-1-5-3-12-9-12-15 0-9 24-6 31 1 4 7 5 8 0 1-8 1-15-1-23-1-4-3-13-10-11-5 2-7 10-7 14 0 8 3 15 6 21 2 5 8 2 8-2 1-9 1-17-2-25-1-6-5-17-12-17-8 0-8 10-8 15 0 9 2 17 6 25 2 4 8 2 8-2 1-7 1-15-2-21-1-5-4-13-10-13-6-1-9 7-10 11-2 8-3 15-3 23 0 6 9 6 9 0v-12l-9 2c4 8 9 14 16 20 3 1 6-1 7-3 4-13 3-27-2-39-1-5-9-5-9 1l3 36 8-2c-5-10-2-23-9-32-2-2-6-1-7 2-4 11 0 22-3 33l9-1-8-16c-1-4-7-3-8 1-1 7 0 17 6 22 3 2 6 2 10 2a85 85 0 0 0 28-1c3-1 7-1 9-4s2-7 2-11l1-13c0-7-3-14-10-16h-9c-5-1-6-5-8-9-4-4-11-7-15-2-3 2-2 6-2 10 0 3-2 11-7 9-6-2-11 6-5 8zM271 474l19 21c4 5 8 15 15 16 4 1 7-1 10-3l12-10 12-11c3-2 6-4 6-8 1-4-2-7-4-10l-10-12-10-13c-2-3-4-7-8-7-4-1-7 1-10 2a123 123 0 0 0-32 25c-2 2-2 5 1 7a92 92 0 0 1 29 22l2 3c1 2 2 2 4-1l1 8c10-6 20-14 28-23 3-4-1-9-6-7l-21 9 5 7c4-7 9-12 15-18l-7-5c-5 8-12 15-20 21l6 5c3-9 8-17 16-23l-6-6c-4 8-11 16-19 22h5l1 1v-2a55 55 0 0 1 14-24l-7-5c-6 11-13 20-22 28l8 3c1-12 6-22 14-31l-7-5c-4 8-10 14-18 18l7 4c0-3 0-7 2-10l3-4c1-2 4-2 1-4-1-2-2-1-2 1l-1 3-2 4-3 4-3 3v2l2 2c-1-3 2-9 4-12 1-1 6-10 8-9l3 7 2 6 1 7c0 3 0 3-2 1-6-5-7-19 3-22 4-1 6 5 7 8l4 15 8-5c-6-5-9-12-9-20l-6 4c11 4 13 18 14 27 1 6 10 3 9-2-2-14-6-28-20-33-3-1-6 1-6 4 0 10 4 19 12 27 3 3 8 0 7-5l-5-17c-2-4-4-8-7-10-8-6-18 0-22 8s-3 19 3 26c5 6 16 9 19-1 2-9-2-22-7-29-6-10-16-3-21 4l-6 11c-1 4-4 10-1 14 7 9 16-6 19-11 3-4 6-9 6-14-1-5-5-7-10-5-9 4-13 16-13 25 0 4 4 6 7 4 9-5 16-13 21-22 2-4-4-9-7-5a61 61 0 0 0-17 37c-1 4 5 5 7 3 10-8 18-19 24-30 2-4-4-9-8-6-5 6-10 13-13 21-2 5-7 15 0 18h5c9-6 17-15 22-25 2-4-2-9-6-6-10 7-17 17-20 29-1 3 3 7 6 5 10-7 17-15 24-25 3-4-3-8-7-5-7 5-12 12-17 19-2 3 1 8 5 7l24-10-6-8c-7 9-16 16-26 22-3 2-2 7 1 8 4 2 9-1 9-6s-5-10-8-13c-8-9-18-16-29-21l1 7 15-14c5-3 11-8 17-10 2 0 1-1 3 1l3 4 7 9 7 9c2 2 7 7 7 9l-8 7-8 7-9 6c-1 1-4 4-6 3l-2-4c-8-11-16-21-26-30-4-3-11 3-6 7z" class="st8"/><path d="M276 466c3 7 26 46 35 33 4-5-4-9-7-5l-1 1 4-2c-2 0-6-6-7-7l-6-8-11-16c-2-6-10-1-7 4z" class="st8"/><path d="M454 343c-10-8-14-24-8-36 4-6 10-10 17-10 7 1 10 6 11 13v12l-1 11c-1 4-5 5-6 9-1 3 0 6-4 7h-3c-2 0-2 0 0 1l-1-4-4-13c-2-8-7-19-1-25h-7c3 3 2 14 2 17l1 23c0 8 11 7 12 0 1-8 0-16-1-24a51 51 0 0 1 2-15l1-3v-1l-4 1 1 4 1 5a90 90 0 0 1-1 18v4c-1 2 0 3 5 1l-1-5v-6a54 54 0 0 1 2-16c2-2 0-3-4-2-1 1 1 4 1 5l1 13c0 2-1 8-3 9-7 2-4 13 3 11 8-1 10-9 11-17s1-17-2-25-12-8-16-1-5 17-5 25c0 6 0 17 8 19 8 3 11-6 12-13 1-8 2-17 0-25-1-6-5-18-13-16s-10 17-10 23v31h12l-1-30c0-8-2-15-8-20-2-1-6-1-7 1-7 8-7 18-5 27l4 16c2 4 2 10 5 14 4 7 16 6 21 2 4-2 6-5 6-8l2-5 4-6c2-4 2-8 2-12l1-15c0-9-3-18-11-23-15-9-33 0-40 14-8 18-2 39 13 50 7 5 13-6 6-10z" class="st3"/><path d="M454 369c2 3 5 5 9 3l4-2 1-1c2-1 0-1-4-1 2 2 6 2 8 0s3-6 0-9c-3-2-6-2-10 0l-3 2c-1 1 1-1 0 0h1c-3 1-1 1 4 2-2-3-5-4-8-2s-4 5-2 8z" class="st3"/><path d="M 457 377 L 457 378 L 458 382 L 463 384 L 467 382 L 469 378 L 469 377 L 467 373 L 463 371 L 458 373 L 457 377 Z M 330 606 L 330 605 C 330 598 318 598 318 606 C 318 614 330 614 330 606 L 330 605 C 330 598 318 598 318 606 C 318 614 330 614 330 606 Z M 234 523 C 242 523 242 511 234 511 C 226 511 226 523 234 523 Z" class="st3"/><path d="M261 528c6 0 6-9 0-9s-6 9 0 9zM629 299c6 0 6-9 0-9s-6 9 0 9zM685 435v2l1 3 4 2 3-2 1-3v-2l-1-3-3-1-4 1-1 3z" class="st8"/></g><g id="doodles"><path d="M649 364c17 3 41 11 34 33-3 10-11 17-19 24l-22 19-19 22c-4 7-11 14-10 23 1 7 7 9 13 11 9 3 18 9 21 18 4 12-5 23-14 30-7 6-16 12-21 21-1 1 1 3 2 1 10-16 34-22 37-43 1-7-3-15-8-20l-10-7-13-5c-11-7 3-23 8-30 7-9 14-17 23-25 14-12 35-23 36-44 2-21-21-28-37-31-2 0-3 3-1 3zM353 361a378 378 0 0 1-129 103c-23 13-45 25-64 43-8 8-18 17-23 27-3 9-4 19 6 24 5 2 11 1 17 0l26-5 26-5c9-2 25-3 25 9 0 2 3 2 3 1 0-12-13-15-22-14l-45 8c-10 2-37 11-35-9 1-13 13-24 22-32 18-18 40-30 62-43 23-13 46-26 67-42 25-18 47-40 66-63 2-2 0-4-2-2zM194 566c-8 11-19 23-17 38 1 11 9 22 21 21 8 0 15-5 22-8 8-4 17-8 26-10 9-3 18-5 28-5 7 0 15 0 22 5 9 7 3 17-2 25a182 182 0 0 0-22 45c-1 5-4 12 1 17 9 11 24 2 31-6 13-11 26-20 41-27a148 148 0 0 1 82-13c8 2 17 4 21 13 1 1 4 0 3-2-6-12-20-13-32-14a146 146 0 0 0-105 31l-18 16c-6 4-19 7-22-2-2-5 0-10 2-14a156 156 0 0 1 16-36c4-7 10-13 12-20 2-13-10-19-20-20-16-3-32 1-46 6-9 3-17 7-26 12-9 4-19 7-27-1-14-16 1-36 11-49 2-1 0-3-2-2z" class="st2"/><path d="M252 617c9-3 18 6 18 15s-6 17-13 24c-1 1 1 3 3 2 7-8 15-19 12-31-2-9-11-16-21-13-2 1-1 3 1 3zM601 359c5 4 10 4 16 6 6 1 11 3 16 8 8 9 10 23 4 34-1 1 2 3 3 1 6-10 5-23-2-33-3-4-7-8-12-11-7-3-16-2-23-7-1-1-3 1-2 2zM234 572c6 15 24 11 35 5l20-14 17-20c7-6 16-13 26-11 9 2 15 10 21 16 7 8 23 16 30 3 1-1-1-3-2-1-5 8-16 5-22 0l-14-15c-10-8-23-7-33 0-12 8-19 21-30 30-6 5-13 10-21 13-9 3-20 3-24-7 0-2-3-1-3 1zM259 479c13 11 24 24 32 39 1 1 4 0 3-2-9-15-19-28-32-39-2-2-4 0-3 2z" class="st2"/><path d="M262 475c11-14 26-29 43-35 3-1 6-2 9-1s6 4 8 7l8 11 17 25c1 2 3 0 2-1l-20-31c-6-8-11-16-22-14a130 130 0 0 0-48 38c-1 1 2 3 3 1z" class="st2"/><path d="M293 519c20-9 39-21 54-37 1-2-1-4-2-2-15 15-33 28-53 36-2 1-1 4 1 3zM274 477c11-10 24-18 38-25 1-1 0-3-2-3-14 7-27 16-38 26-2 2 0 4 2 2zM282 482l18-13c2-1 1-4-1-3l-19 14c-1 1 0 4 2 2zM286 489l31-22c2-1 0-3-1-2l-31 22c-2 1 0 3 1 2zM295 498c6-6 13-10 20-15 2-1 0-3-1-2-8 4-15 9-21 14-2 2 0 4 2 3zM300 506c9-8 19-14 30-20 2 0 0-3-1-2-12 5-22 12-32 20-1 1 1 3 3 2zM505 569c5-7-1-14-7-16-8-2-17 1-21 8-4 8-2 18 3 25 8 9 27 14 23 28 0 2 3 3 3 1 4-16-16-21-24-31-5-7-6-19 1-25 3-2 7-4 11-4 4 1 14 5 9 12-1 1 1 3 2 2z" class="st2"/><path d="M507 568a23 23 0 0 1 17-20c3 0 4 0 6 2s2 3 2 5v4l-2 5c-1 5-3 8-6 12-8 13-21 24-21 41-1 2 2 2 3 0 0-22 23-35 28-55 1-4 2-9 0-13s-6-4-10-3c-11 2-18 11-20 21 0 2 2 3 3 1zM524 417c-2 10-2 20 0 29 2 10 9 8 16 8 18 2 41 13 52-7 1-2-1-3-2-2-10 17-31 9-46 7l-10-1c-5 0-7-2-8-7-1-9-1-17 1-26 0-2-3-3-3-1z" class="st2"/><path d="M524 422c6-4 10-4 16-5 3-1 5-2 5-4 1-7-2-14 4-20s14-1 16 6c1 3 2 7 5 9 3 3 7 3 11 4 15 4 10 23 7 34-1 2 2 2 3 1 3-11 7-25-2-34l-5-4-10-1c-5-2-5-11-9-15-6-8-17-7-21 2l-2 8c0 3 1 9-2 11l-9 1-8 4c-2 1 0 4 1 3z" class="st2"/><path d="M536 419c-1 11 1 23 6 34 1 2 3 0 2-2-5-10-6-21-5-32 0-2-3-2-3 0zM440 352c-13-6-21-20-20-34s11-28 23-35c8-4 16-5 24-1 7 4 12 12 15 19 5 14 4 30-5 42-1 2 2 3 3 2 14-21 10-56-14-67-13-5-26 2-35 11s-15 21-14 33c1 14 9 27 21 33 2 1 4-2 2-3z" class="st2"/><path d="M438 356c-2 2-2 7 2 9 5 3 14 0 19-1 6-2 15-3 19-8 3-3 3-8-1-10-1-2-3 1-2 2 5 4-1 8-5 10a98 98 0 0 1-17 4l-6 1c-3 0-10-1-6-5 1-2-1-4-3-2z" class="st2"/><path d="M444 366c1 6 6 10 11 10 8 1 14-6 19-11 1-2-1-4-2-2-3 4-7 8-12 10s-12 0-13-7h-3zM452 378c0 4 2 8 6 9 5 0 9-3 9-8 0-2-3-2-3 0 0 3-3 5-5 5-3-1-4-3-4-6 1-1-2-2-3 0zM432 314c8 6 15 14 19 23 1 2 4 0 3-2-5-9-12-17-21-23-1-1-3 1-1 2z" class="st2"/><path d="m447 307 6 43c0 2 3 1 3-1l-6-43c0-2-3-1-3 1z" class="st2"/><path d="M452 332c3-10 9-17 17-22 2-1 1-4-1-3-9 5-16 14-18 24-1 2 2 2 2 1zM343 589l13 25c3 4 6 12 12 10 2-1 0-4-1-3-4 2-11-14-12-16l-9-18c-1-2-3 0-3 2z" class="st2"/><path d="m346 590 26-19c7-6 15-12 24-14 10-3 19-1 25 7 6 7 9 15 13 23 1 2 4 0 3-1-7-15-16-36-37-33-10 1-19 7-27 13l-29 22c-1 2 1 4 2 2z" class="st2"/><path d="M364 624c26-6 50-18 70-35 2-2 0-4-2-2-20 17-43 28-69 34-2 1-1 3 1 3zM388 596c-5-2-10-7-8-12 1-6 8-10 13-7 11 5 3 20-8 17-1-1-2 2 0 2 6 3 13 0 16-7 2-6-2-13-8-16-7-2-14 2-16 9-2 8 3 15 10 17 2 0 3-3 1-3zM442 520c-2-11-2-23 11-26 6-2 12-3 15-9 4-6 4-12 2-19-1-5-1-9 3-13 4-3 8-4 13-3 1 1 2-2 0-3-6-2-13 1-17 6-6 8 1 17-1 25-2 6-6 10-11 12-4 2-9 1-13 4-7 7-6 17-5 26 0 2 3 2 3 0zM417 464c-3-3 0-8 4-6 1 1 2 3 1 4-1 2-3 3-5 2-1-1-3 2-1 2 3 2 7 1 9-2s0-7-3-8c-2-2-6-2-8 1s-2 7 1 9c2 1 4-1 2-2zM554 309c-2-3-3-7-2-10s4-5 7-4c3 0 5 3 3 6-2 2-5 4-8 3v3c5 1 9-2 11-6s0-8-4-9-8 0-10 3c-4 5-2 11 0 16 1 1 4-1 3-2zM393 431c5 10 16 16 27 14 14-2 21-12 26-24 7-13 15-24 29-30 13-6 29-3 40-13 4-4 6-9 5-14 0-5-3-8-2-13s5-8 10-9c2-1 1-4-1-3-6 1-10 6-12 11-1 4 0 7 1 10 2 5 2 9-1 13-6 8-16 10-25 11-8 1-16 3-23 7-6 4-12 9-16 15-5 6-7 14-11 21-5 8-13 15-23 15-9 1-18-4-22-12-1-2-3 0-2 1zM372 267l-5 38c-1 2 2 3 3 1l5-38c0-2-3-2-3-1z" class="st2"/><path d="m372 297-3 5 2 2 4-6h-3v3l2 1c-1-2 0-3 1-4h-2v2h1l-1-2v-1s0-2-1-1 2 3 3 1-2-5-4-3c-2 3-1 6 1 8h2c3-1 3-5 0-7h-1c-2 2-3 5-2 7 0 1 1 2 2 1 3-1 3-4 2-7h-2c-2 2-4 4-4 7-1 1 1 2 2 1l4-7c0-1-3-2-3 0zM366 312c-2 11-7 21-14 29-1 2 1 4 2 3 8-9 13-19 15-31 0-2-3-2-3-1zM345 325c-10 8-21 14-33 21-2 0 0 3 2 2 11-6 22-13 32-21 2-1 1-3-1-2zM589 554c-3-5-7-2-9 1l-7 11c-2 2-4 5-4 9-1 7 4 8 10 9 6 2 6 10 2 14-4 3-8 5-13 6-1 1-1 4 1 3 9-3 21-9 17-20l-4-4-3-1-6-4c-2-1-2-2-1-4l1-4 3-5c1-1 8-14 10-10 2 2 4 0 3-1zM417 671c9-2 16 6 12 14-1 2 2 3 3 2 4-11-4-21-15-19-2 1-1 4 0 3zM571 507c-4-3-4-11 2-11 2 0 4 1 4 4 0 1-2 4-4 3-2 0-3 3-1 3 4 1 7-2 8-5 0-4-2-7-6-8-4 0-7 2-9 5-1 4 1 9 4 11 2 1 3-1 2-2zM153 494c1-5 6-9 10-12l15-10 28-20c2-1 0-3-1-2l-34 23c-7 5-19 11-21 20-1 2 2 3 3 1z" class="st2"/></g><g id="laptop"><path d="m824 1020-365-63 221-89 347 77-203 75z" class="st1"/><path d="m819 1021 1 4c0 2 3 1 3 0v-3c0-2-3-2-3 0l-1 3h3l-1-4-2 1 3 1v-2l-3-1-1 5 2 1 1-1 1-5c0-1-2-2-3-1v5h2v-4c0-1-2-1-2 1v5c0 2 2 1 3 0v-4h-3v3l3-1-1-3c0-2-3-2-2 0z" class="st2"/><path d="M821 1029c16-9 33-13 51-18 8-3 17-5 25-9l23-10c17-8 35-13 53-19l56-19c2 0 1-3-1-3l-55 19c-18 6-36 11-53 18l-27 13-25 8c-16 5-33 9-49 17-1 1 0 3 2 3z" class="st2"/><path d="m822 1028 207-73c6-2 3-10-2-8l-207 72c-6 2-3 11 2 9zM814 931c13 2 24 9 37 12 2 0 3-2 1-3-13-2-24-10-38-12v3z" class="st2"/><path d="M852 942c8-5 16-10 22-16 2-1 0-3-2-2-6 6-14 11-21 15-2 1 0 4 1 3zM818 926l19-13c2-1 0-4-1-3l-20 13c-2 1 0 4 2 3z" class="st2"/><path d="m838 913 34 13c2 1 2-2 1-3l-35-13c-1 0-2 3 0 3zM805 943c30 9 60 20 89 32 2 1 3-2 1-3-29-12-59-23-89-32-2-1-2 2-1 3zM808 966l57 26c2 1 3-2 2-3-20-8-38-17-57-26-2 0-3 2-2 3zM811 992l31 15c1 1 3-1 1-2l-30-16c-2-1-4 2-2 3z" class="st2"/><path d="m817 993 44-34a474 474 0 0 0-46 31c-2 2 0 4 2 3zM813 972l24-17a3513 3513 0 0 0-25 14c-2 2 0 4 1 3z" class="st2"/><path d="m818 1027-377-64-35-268 405 54 7 278z" class="st1"/><path d="M594 872c-11-3-17-12-18-23-1-12 2-23 12-29 9-5 21-3 29 3s16 19 9 29c-1 2 1 3 2 2 8-11 1-25-8-32-9-8-21-10-32-5-12 6-16 19-15 32 1 12 8 22 20 26 2 1 3-2 1-3z" class="st2"/><path d="M597 873c-5-7-3-18 4-23 8-6 18-3 24 3 1 2 3 0 2-2-7-8-19-10-28-4-8 7-10 19-5 28 1 1 4 0 3-2z" class="st2"/><path d="M607 878c-4-5-4-15 3-18 6-4 14 0 16 7 1 2 4 1 3-1-3-8-13-13-21-9-8 5-9 16-3 23 1 1 4-1 2-2z" class="st2"/><path d="M615 885c4 1 8-1 10-5 1-4-1-8-4-9-4-2-8-1-10 2-2 4-1 8 2 11 1 1 4-1 2-3-4-3-1-10 4-8 2 1 4 4 3 6s-4 4-6 3-3 2-1 3z" class="st2"/><path d="m811 749 9 276M812 749l8 272" class="st9"/><path fill="#3d3d3d" d="M639 731c6 3 62 34 66 88 2 29-12 52-22 66-49 74-147 88-174 90 39 26 174 111 322 106a277 277 0 0 0 223-105l-29-18-209 71-11-277-166-21z" opacity=".4"/><path fill="#3d3d3d" d="M559 982c13 8 33 21 59 32 33 15 129 59 233 35 75-18 133-66 130-74-3-5-32 0-163 52l-6-127-11 106-242-24z" opacity=".5"/></g><path id="color" d="M 586 868 C 579 860 577 849 580 839 C 584 829 594 820 605 821 C 616 821 624 828 627 835 L 629 845 L 627 851 C 622 845 614 843 607 844 C 598 846 594 854 593 855 C 589 863 593 871 593 872 L 586 868 Z" class="st8"/><g id="hand_L"><path d="M1092 741c-5 4-11 10-16 17a94 94 0 0 0-16 67 192 192 0 0 0-131 20l8 4c19 5 38-11 39-10 0 1-22 12-21 21 1 6 12 10 23 13 10 3 19 6 32 5 17-2 28-11 33-15 5 2 13 6 22 8 17 6 41 13 57 3 10-6 13-21 19-51 7-38 11-57 1-70-14-16-41-13-50-12z" class="st1"/><path d="M1057 826c12 5 22 13 29 24 1 2 3 0 2-1-7-12-18-21-31-25-1-1-2 2 0 2zM992 846c-12 2-21 10-25 21-1 2 2 3 3 1 3-10 12-17 23-19 2 0 1-3-1-3z" class="st2"/><path d="M968 869c6 6 15 8 23 6 2-1 1-4-1-3-7 2-14 0-20-5-1-1-3 1-2 2z" class="st2"/><path d="m1006 856-12 9c-2 2-5 5-5 8 2 10 13 8 20 5 1 0 1-3-1-3l-9 3c-5-1-9-5-5-9l14-10c2-1 0-4-2-3z" class="st2"/><path d="M1087 599a152 152 0 0 1 25 24c6 8 11 15 15 25 6 12 12 23 17 41a237 237 0 0 1 13 100l-12-9c-19-12-42-8-64-4l-20 5 4-33 2-28-6-14c-5-11-15-33-9-58 6-29 29-45 35-49z" class="st3"/><path d="M1091 604c10 5 16 14 22 24a285 285 0 0 1 38 95c1 1 3 1 3-1a290 290 0 0 0-40-99c-6-9-12-17-22-22-1 0-3 2-1 3zM1060 706l14 28c1 1 3 0 3-2l-15-28c-1-2-3 0-2 2z" class="st2"/><path d="m1067 723-8 58 2 2c17-6 35-8 53-8 14 1 32 2 40 16 1 1 4 0 3-2-8-13-24-16-38-17-20-1-40 2-59 8l2 1 8-58c0-2-3-2-3 0z" class="st2"/><path d="M1151 721c3 22 9 45 3 67 0 2 3 3 3 1 6-22 0-46-3-69 0-2-3-1-3 1z" class="st2"/><path fill="#3d3d3d" d="M1080 595a384 384 0 0 1 45 179l-31 1 10 72a102 102 0 0 0-64-13c-34 6-54 34-59 40 5 2 11 4 18 4 22 2 38-11 42-15 15 8 28 11 38 13 16 3 34 7 45-3l6-12c6-16 10-30 14-56l3-23 8 7a121 121 0 0 0-2-71c-16-55-26-89-57-113-6-5-12-8-16-10z" opacity=".3"/><path fill="#3d3d3d" d="M1133 663a353 353 0 0 1 2 126c-6 42-9 62-20 72-22 18-60 4-69 1 8 6 40 25 70 14l10-4c4-7 9-16 12-28l3-19 6-43 9 8 2-23c1-23-4-41-10-61-3-11-8-26-15-43z" opacity=".3"/></g><g id="head"><path fill="#fff" d="M858 401c1 11 2 26 6 43l8 28c5 14 15 40 40 57 6 4 16 10 31 13l6 1 3 18c3 19 1 25 6 30 6 6 16 6 18 6 17-1 25-18 26-19a98 98 0 0 1-12-57c8-11 16-19 25-26 3-2 6-6 11-7 7-3 10 0 16-2 8-3 12-14 14-18 6-19-2-37-7-47-4-10-15-34-42-53-29-20-85-42-122-13-6 5-21 18-27 46z"/><path d="M862 442c-7-1-23-5-33-19-16-21-8-50 1-66 14-24 40-33 72-44 19-6 37-12 61-11 14 1 60 3 88 37 16 20 18 42 22 85 1 20 0 30-3 41-3 7-11 31-34 40-13 5-24 4-30 3l17-25c3 1 14 1 23-7 12-11 14-33 5-38-6-5-19-1-30 9-1-6-2-13-5-20-13-34-40-52-53-60-6 7-23 27-52 34-24 7-44 2-52 0l3 41z" class="st8"/><path d="M857 403c4 31 8 63 23 91 13 23 33 42 58 49 2 1 3-2 1-3-25-6-45-26-57-49-14-27-18-58-22-88h-3z" class="st2"/><path d="M938 543c18 0 37-9 52-20 14-10 26-24 34-39 1-2-2-4-3-2-8 15-19 29-33 39a90 90 0 0 1-50 19c-2 0-2 3 0 3z" class="st2"/><path d="M990 521c-2 20 2 40 11 58 1 2 3 1 2-1-9-18-12-37-10-57 0-2-3-2-3 0z" class="st2"/><path d="m946 543 8 35c1 7 2 16 11 19 13 5 32-3 37-16 1-2-2-3-3-1-3 7-10 11-17 13-6 2-15 4-20-1-3-3-4-7-4-11l-2-13-7-26c0-2-3-1-3 1z" class="st2"/><path d="M950 555c18-2 30-16 38-30 2-2-1-3-2-2-8 14-19 27-36 29v3z" class="st2"/><path d="M950 545c14-1 26-8 35-18 2-2 0-4-2-3-8 10-20 17-33 18-2 0-2 3 0 3z" class="st2"/><path d="M950 543c11-2 22-6 30-14 2-1-1-3-2-2-8 7-18 12-29 13-1 0-1 3 1 3z" class="st2"/><path d="M950 545c0 3 0 8 3 8 3 1 7-2 10-4 8-4 14-11 19-19 1-1-1-3-2-1a60 60 0 0 1-22 19c-1 1-3 3-4 2l-1-5c-1-2-4-1-3 0z" class="st2"/><path d="M951 548c9-3 17-8 24-13 2-1 0-4-1-3-8 6-15 10-24 13-2 1-1 4 1 3z" class="st2"/><path d="M953 551c9-3 18-8 25-16 1-1-1-3-3-2-6 7-14 12-23 15-2 1-1 4 1 3z" class="st2"/><path d="M954 550c7-3 14-8 19-13 2-1 0-4-2-2-5 5-11 9-18 12-2 1-1 3 1 3zM872 479c-16-5-21-27-20-42 2-17 17-35 36-28 9 4 12 14 14 23 3 9 4 19 2 29-2 8-8 16-16 19-8 4-17 2-23-5-1-1-3 1-2 2 9 12 27 10 36-1 11-13 10-33 5-48-2-8-5-15-12-19-6-4-13-5-19-3-16 4-24 20-24 35 0 16 6 36 23 41 1 1 2-2 0-3z" class="st2"/><path d="M907 450c10-6 22-7 32-2 2 1 3-2 1-2-11-6-24-6-35 1-1 1 0 4 2 3z" class="st2"/><path d="M955 471a44 44 0 0 1-12-43c5-16 21-30 38-24 18 6 19 33 14 49-2 9-8 18-18 22-9 3-18-2-25-7-2-1-4 1-2 2 6 5 13 9 21 9s15-4 19-10c11-13 13-32 9-48-4-14-16-23-31-21s-25 15-28 29c-4 16 1 33 12 44 2 1 4-1 3-2zM882 438c-1 6 0 12 3 18 1 1 2 1 3-1 2-7-1-13-5-19 0-2-2-1-2 0 0 6 1 11 3 16 0 2 3 1 3-1-2-5-3-9-3-15l-3 1c3 6 6 11 4 18l3-1c-3-5-5-10-4-15 1-2-2-3-2-1z" class="st2"/><path d="m970 435-1-3-3 1c1 6 1 13 6 18 1 0 2 0 2-2 1-7-1-14-5-20-1-1-3 0-3 2l5 14c0 2 3 1 2-1l-4-14-3 2c4 5 6 11 5 18l3-2c-4-4-4-9-4-15l-3 1v1c0 2 3 2 3 0zM917 455l-5 18c0 3-2 10-1 13 3 7 16 3 21 0 2 0 0-3-2-2l-11 2c-3 0-5-1-5-3l1-7 5-21c1-1-2-2-3 0zM932 513c8-1 14-6 17-13 1-2-1-3-2-2-3 7-9 11-16 12-2 0-1 3 1 3zM875 429c2-2 6-2 8 0 2 1 4-1 2-2-3-3-9-3-12 0-1 2 1 4 2 2zM961 424c3-3 8-3 11 0 1 1 3-1 2-3-4-3-11-3-15 1-2 1 1 3 2 2zM1000 438c11-4 22-7 34-7 2 0 2-3 0-3-12 0-23 3-34 7-2 0-1 3 0 3z" class="st2"/><path d="M1015 313c6 8 29 39 25 83-2 24-12 42-19 51l9-6c6-3 10-6 15-5 2 0 5 0 8 2 8 7 5 29-8 40-8 6-17 6-21 6l-17 25h16c3-1 15-3 26-12 10-8 15-19 18-26 8-20 6-38 3-69l-4-31c-3-10-8-26-21-39a78 78 0 0 0-30-19z" class="st4"/><path fill="#3d3d3d" d="M919 398a244 244 0 0 0 49-59l-5 27a87 87 0 0 1-44 32z" opacity=".5"/><path fill="#3d3d3d" d="M990 387c7 25 8 47 7 61 0 10-3 64-32 83-3 2-10 6-9 7l21-9c11-7 29-19 45-45 3 0 16 1 26-8 11-11 13-33 4-39-6-4-19-1-30 8a123 123 0 0 0-32-58z" opacity=".3"/><path fill="#3d3d3d" d="m966 537 8 24 10 33c2 0 7-2 11-6s6-9 7-11a100 100 0 0 1-11-55l-25 15zM916 458l-15 32h24l-14-5 5-27z" opacity=".4"/></g></g></svg>